<svg width="180" height="180" viewBox="0 0 180 180" fill="none" xmlns="http://www.w3.org/2000/svg">
<rect width="180" height="180" fill="black"/>
<path d="M76.5489 151.875H103.451V146.495H114.212V141.114H124.973V135.734H130.353V130.353H135.734V124.973H141.114V114.212H146.495V98.0707H151.875V81.9294H146.495V65.788H141.114V55.0272H135.734V49.6467H130.353V44.2663H124.973V38.8859H114.212V33.5054H103.451V28.125H76.5489V33.5054H65.788V38.8859H55.0272V44.2663H49.6467V49.6467H44.2663V55.0272H38.8859V65.788H33.5054V81.9294H28.125V98.0707H33.5054V114.212H38.8859V124.973H44.2663V130.353H49.6467V135.734H55.0272V141.114H65.788V146.495H76.5489V151.875Z" fill="white"/>
<rect x="76.5488" y="124.973" width="26.9022" height="5.38043" fill="black"/>
<rect x="65.7876" y="119.592" width="10.7609" height="5.38043" fill="black"/>
<rect x="103.451" y="119.592" width="10.7609" height="5.38043" fill="black"/>
<rect x="60.4078" y="114.212" width="5.38043" height="5.38043" fill="black"/>
<rect x="114.212" y="114.212" width="5.38043" height="5.38043" fill="black"/>
<rect x="55.027" y="108.832" width="5.38043" height="5.38043" fill="black"/>
<rect x="119.592" y="108.832" width="5.38043" height="5.38043" fill="black"/>
<rect x="119.592" y="76.5489" width="5.38043" height="5.38043" fill="black"/>
<rect x="60.4078" y="81.9294" width="5.38043" height="5.38043" transform="rotate(-180 60.4078 81.9294)" fill="black"/>
<rect x="114.212" y="81.9294" width="5.38043" height="5.38043" fill="black"/>
<rect x="65.7876" y="76.5489" width="5.38043" height="5.38043" transform="rotate(-180 65.7876 76.5489)" fill="black"/>
<rect x="108.832" y="87.3098" width="5.38043" height="5.38043" fill="black"/>
<rect x="71.168" y="71.1685" width="5.38043" height="5.38043" transform="rotate(-180 71.168 71.1685)" fill="black"/>
<rect x="100.761" y="71.1685" width="5.38044" height="10.7609" transform="rotate(-180 100.761 71.1685)" fill="black"/>
<rect x="95.38" y="81.9294" width="5.38044" height="10.7609" transform="rotate(-180 95.38 81.9294)" fill="black"/>
<rect x="90.0006" y="92.6902" width="5.38044" height="10.7609" transform="rotate(-180 90.0006 92.6902)" fill="black"/>
<rect x="84.62" y="103.451" width="5.38044" height="10.7609" transform="rotate(-180 84.62 103.451)" fill="black"/>
<rect x="114.212" y="71.1685" width="5.38043" height="5.38043" fill="black"/>
<rect x="65.7876" y="87.3098" width="5.38043" height="5.38043" transform="rotate(-180 65.7876 87.3098)" fill="black"/>
<rect x="108.832" y="65.7881" width="5.38043" height="5.38043" fill="black"/>
<rect x="71.168" y="92.6902" width="5.38043" height="5.38043" transform="rotate(-180 71.168 92.6902)" fill="black"/>
</svg>
