<svg width="459" height="562" viewBox="0 0 459 562" fill="none" xmlns="http://www.w3.org/2000/svg">
<path d="M0 0L400.5 0L459 58.5V561.5H0L0 0Z" fill="black"/>
<path d="M400.293 0.5L458.5 58.707V561H0.5V0.5H400.293Z" stroke="white" stroke-opacity="0.5"/>
<line y1="187.75" x2="459" y2="187.75" stroke="white" stroke-opacity="0.5" stroke-width="0.5" stroke-dasharray="2 2"/>
<line y1="242.75" x2="459" y2="242.75" stroke="white" stroke-opacity="0.5" stroke-width="0.5" stroke-dasharray="2 2"/>
<line y1="395.75" x2="459" y2="395.75" stroke="white" stroke-opacity="0.5" stroke-width="0.5" stroke-dasharray="2 2"/>
<line y1="452.75" x2="459" y2="452.75" stroke="white" stroke-opacity="0.5" stroke-width="0.5" stroke-dasharray="2 2"/>
<path d="M24.75 79H25.5V84.25H28.5V85H24.75V79ZM30.0029 80.5H30.7529V82H33.0029V80.5H33.7529V85H33.0029V82.75H30.7529V85H30.0029V80.5ZM31.5029 79H32.2529V79.75H31.5029V79ZM30.7529 79.75H31.5029V80.5H30.7529V79.75ZM32.2529 79.75H33.0029V80.5H32.2529V79.75ZM35.2559 79H39.0059V79.75H37.5059V85H36.7559V79.75H35.2559V79ZM42.0088 84.25V79.75H40.5088V79H44.2588V79.75H42.7588V84.25H44.2588V85H40.5088V84.25H42.0088ZM45.7617 79H46.5117V80.5H47.2617V81.25H46.5117V85H45.7617V79ZM48.7617 82.75H48.0117V82H48.7617V79H49.5117V85H48.7617V82.75ZM48.0117 82H47.2617V81.25H48.0117V82ZM56.2676 79.75H57.0176V84.25H56.2676V79.75ZM57.0176 84.25H59.2676V85H57.0176V84.25ZM59.2676 83.5H60.0176V84.25H59.2676V83.5ZM57.0176 79H59.2676V79.75H57.0176V79ZM59.2676 79.75H60.0176V80.5H59.2676V79.75ZM61.5205 80.5H62.2705V82H64.5205V80.5H65.2705V85H64.5205V82.75H62.2705V85H61.5205V80.5ZM63.0205 79H63.7705V79.75H63.0205V79ZM62.2705 79.75H63.0205V80.5H62.2705V79.75ZM63.7705 79.75H64.5205V80.5H63.7705V79.75ZM66.7734 79H69.7734V79.75H67.5234V82H69.7734V82.75H67.5234V85H66.7734V79ZM69.7734 79.75H70.5234V82H69.7734V79.75ZM73.5264 84.25V79.75H72.0264V79H75.7764V79.75H74.2764V84.25H75.7764V85H72.0264V84.25H73.5264ZM77.2793 79H81.0293V79.75H79.5293V85H78.7793V79.75H77.2793V79ZM82.5322 80.5H83.2822V82H85.5322V80.5H86.2822V85H85.5322V82.75H83.2822V85H82.5322V80.5ZM84.0322 79H84.7822V79.75H84.0322V79ZM83.2822 79.75H84.0322V80.5H83.2822V79.75ZM84.7822 79.75H85.5322V80.5H84.7822V79.75ZM87.7852 79H88.5352V84.25H91.5352V85H87.7852V79ZM98.291 79H99.041V84.25H102.041V85H98.291V79ZM103.544 79H107.294V79.75H104.294V81.25H106.544V82H104.294V84.25H107.294V85H103.544V79ZM108.797 79H112.547V79.75H111.047V85H110.297V79.75H108.797V79ZM114.05 79H117.8V79.75H116.3V85H115.55V79.75H114.05V79ZM119.303 79H123.053V79.75H120.053V81.25H122.303V82H120.053V84.25H123.053V85H119.303V79ZM124.556 79H127.556V79.75H125.306V82H127.556V83.5H126.806V82.75H125.306V85H124.556V79ZM127.556 79.75H128.306V82H127.556V79.75ZM127.556 83.5H128.306V85H127.556V83.5ZM135.062 79H138.062V79.75H135.812V84.25H138.062V85H135.062V79ZM138.062 79.75H138.812V84.25H138.062V79.75ZM146.317 79.75H147.067V84.25H146.317V79.75ZM147.817 85H147.067V84.25H147.817V85ZM147.817 85H148.567V85.75H147.817V85ZM147.817 78.25H148.567V79H147.817V78.25ZM147.067 79H147.817V79.75H147.067V79ZM150.82 80.5H151.57V82H153.82V80.5H154.57V85H153.82V82.75H151.57V85H150.82V80.5ZM152.32 79H153.07V79.75H152.32V79ZM151.57 79.75H152.32V80.5H151.57V79.75ZM153.07 79.75H153.82V80.5H153.07V79.75ZM156.073 79H159.073V79.75H156.823V84.25H159.073V85H156.073V79ZM159.073 79.75H159.823V84.25H159.073V79.75ZM161.326 79H162.076V81.25H164.326V79H165.076V85H164.326V82H162.076V85H161.326V79ZM166.579 79H170.329V79.75H167.329V81.25H169.579V82H167.329V84.25H170.329V85H166.579V79ZM171.832 79.75H172.582V81.25H171.832V79.75ZM172.582 81.25H174.832V82H172.582V81.25ZM174.832 84.25V85H172.582V84.25H174.832ZM172.582 84.25H171.832V83.5H172.582V84.25ZM174.832 82H175.582V84.25H174.832V82ZM172.582 79H174.832V79.75H172.582V79ZM174.832 79.75H175.582V80.5H174.832V79.75ZM178.585 84.25V79.75H177.085V79H180.835V79.75H179.335V84.25H180.835V85H177.085V84.25H178.585ZM182.338 79.75H183.088V84.25H182.338V79.75ZM183.088 84.25H185.338V85H183.088V84.25ZM185.338 79.75H186.088V84.25H185.338V79.75ZM183.088 79H185.338V79.75H183.088V79ZM187.591 79H188.341V80.5H189.091V81.25H188.341V85H187.591V79ZM190.591 82.75H189.841V82H190.591V79H191.341V85H190.591V82.75ZM189.841 82H189.091V81.25H189.841V82ZM195.094 79.75H195.844V84.25H195.094V79.75ZM194.344 84.25H195.094V85H194.344V84.25ZM193.594 85H194.344V85.75H193.594V85ZM193.594 78.25H194.344V79H193.594V78.25ZM195.094 79.75H194.344V79H195.094V79.75Z" fill="white" fill-opacity="0.5"/>
<path d="M24.75 200.5H25.5V202H27.75V200.5H28.5V205H27.75V202.75H25.5V205H24.75V200.5ZM26.25 199H27V199.75H26.25V199ZM25.5 199.75H26.25V200.5H25.5V199.75ZM27 199.75H27.75V200.5H27V199.75ZM30.0029 199.75H30.7529V201.25H30.0029V199.75ZM30.7529 201.25H33.0029V202H30.7529V201.25ZM33.0029 204.25V205H30.7529V204.25H33.0029ZM30.7529 204.25H30.0029V203.5H30.7529V204.25ZM33.0029 202H33.7529V204.25H33.0029V202ZM30.7529 199H33.0029V199.75H30.7529V199ZM33.0029 199.75H33.7529V200.5H33.0029V199.75ZM35.2559 199.75H36.0059V204.25H35.2559V199.75ZM36.0059 204.25H38.2559V205H36.0059V204.25ZM38.2559 203.5H39.0059V204.25H38.2559V203.5ZM36.0059 199H38.2559V199.75H36.0059V199ZM38.2559 199.75H39.0059V200.5H38.2559V199.75ZM40.5088 199H44.2588V199.75H41.2588V201.25H43.5088V202H41.2588V204.25H44.2588V205H40.5088V199ZM45.7617 199H46.5117V200.5H47.2617V201.25H46.5117V205H45.7617V199ZM48.7617 202.75H48.0117V202H48.7617V199H49.5117V205H48.7617V202.75ZM48.0117 202H47.2617V201.25H48.0117V202ZM51.0146 199H54.0146V199.75H51.7646V204.25H54.0146V205H51.0146V199ZM54.0146 199.75H54.7646V204.25H54.0146V199.75ZM56.2676 199H60.0176V199.75H57.0176V201.25H59.2676V202H57.0176V204.25H60.0176V205H56.2676V199ZM61.5205 199H64.5205V199.75H62.2705V202H64.5205V203.5H63.7705V202.75H62.2705V205H61.5205V199ZM64.5205 199.75H65.2705V202H64.5205V199.75ZM64.5205 203.5H65.2705V205H64.5205V203.5ZM69.0234 199.75H69.7734V201.25H69.0234V199.75ZM66.7734 204.25H67.5234V205.75H66.7734V204.25ZM67.5234 202.75H68.2734V204.25H67.5234V202.75ZM68.2734 201.25H69.0234V202.75H68.2734V201.25ZM69.7734 198.25H70.5234V199.75H69.7734V198.25ZM24.75 210.75H25.5V215.25H24.75V210.75ZM25.5 215.25H27.75V216H25.5V215.25ZM27.75 214.5H28.5V215.25H27.75V214.5ZM25.5 210H27.75V210.75H25.5V210ZM27.75 210.75H28.5V211.5H27.75V210.75ZM30.0029 211.5H30.7529V213H33.0029V211.5H33.7529V216H33.0029V213.75H30.7529V216H30.0029V211.5ZM31.5029 210H32.2529V210.75H31.5029V210ZM30.7529 210.75H31.5029V211.5H30.7529V210.75ZM32.2529 210.75H33.0029V211.5H32.2529V210.75ZM35.2559 210H38.2559V210.75H36.0059V213H38.2559V213.75H36.0059V216H35.2559V210ZM38.2559 210.75H39.0059V213H38.2559V210.75ZM45.7617 210H46.5117V212.25H48.7617V210H49.5117V216H48.7617V213H46.5117V216H45.7617V210ZM51.0146 210H54.7646V210.75H51.7646V212.25H54.0146V213H51.7646V215.25H54.7646V216H51.0146V210ZM57.7676 215.25V210.75H56.2676V210H60.0176V210.75H58.5176V215.25H60.0176V216H56.2676V215.25H57.7676ZM61.5205 210.75H62.2705V215.25H61.5205V210.75ZM62.2705 215.25H64.5205V216H62.2705V215.25ZM64.5205 213.75H63.7705V213H65.2705V215.25H64.5205V213.75ZM62.2705 210H64.5205V210.75H62.2705V210ZM64.5205 210.75H65.2705V211.5H64.5205V210.75ZM66.7734 210H67.5234V212.25H69.7734V210H70.5234V216H69.7734V213H67.5234V216H66.7734V210ZM72.0264 210H75.7764V210.75H74.2764V216H73.5264V210.75H72.0264V210Z" fill="white" fill-opacity="0.5"/>
<path d="M27.75 257.75H28.5V260H27.75V257.75ZM24.75 257.75H25.5V260H24.75V257.75ZM26.25 256.25H25.5V255.5H26.25V256.25ZM26.25 256.25H27V257H26.25V256.25ZM27 255.5H27.75V256.25H27V255.5ZM25.5 255.5H24.75V254H25.5V255.5ZM25.5 257H26.25V257.75H25.5V257ZM27.75 254H28.5V255.5H27.75V254ZM27 257H27.75V257.75H27V257ZM33.0029 257V257.75H30.7529V257H33.0029ZM35.2559 254H36.0059V256.25H38.2559V254H39.0059V260H38.2559V257H36.0059V260H35.2559V254ZM40.5088 254H44.2588V254.75H41.2588V256.25H43.5088V257H41.2588V259.25H44.2588V260H40.5088V254ZM47.2617 259.25V254.75H45.7617V254H49.5117V254.75H48.0117V259.25H49.5117V260H45.7617V259.25H47.2617ZM51.0146 254.75H51.7646V259.25H51.0146V254.75ZM51.7646 259.25H54.0146V260H51.7646V259.25ZM54.0146 257.75H53.2646V257H54.7646V259.25H54.0146V257.75ZM51.7646 254H54.0146V254.75H51.7646V254ZM54.0146 254.75H54.7646V255.5H54.0146V254.75ZM56.2676 254H57.0176V256.25H59.2676V254H60.0176V260H59.2676V257H57.0176V260H56.2676V254ZM61.5205 254H65.2705V254.75H63.7705V260H63.0205V254.75H61.5205V254Z" fill="white" fill-opacity="0.5"/>
<path d="M24.75 407H27.75V407.75H25.5V409.25H27.75V410H25.5V412.25H27.75V413H24.75V407ZM27.75 410H28.5V412.25H27.75V410ZM27.75 407.75H28.5V409.25H27.75V407.75ZM30.0029 408.5H30.7529V410H33.0029V408.5H33.7529V413H33.0029V410.75H30.7529V413H30.0029V408.5ZM31.5029 407H32.2529V407.75H31.5029V407ZM30.7529 407.75H31.5029V408.5H30.7529V407.75ZM32.2529 407.75H33.0029V408.5H32.2529V407.75ZM35.2559 407.75H36.0059V409.25H35.2559V407.75ZM36.0059 409.25H38.2559V410H36.0059V409.25ZM38.2559 412.25V413H36.0059V412.25H38.2559ZM36.0059 412.25H35.2559V411.5H36.0059V412.25ZM38.2559 410H39.0059V412.25H38.2559V410ZM36.0059 407H38.2559V407.75H36.0059V407ZM38.2559 407.75H39.0059V408.5H38.2559V407.75ZM40.5088 407H44.2588V407.75H41.2588V409.25H43.5088V410H41.2588V412.25H44.2588V413H40.5088V407ZM45.7617 407H46.5117V412.25H49.5117V413H45.7617V407ZM52.5146 412.25V407.75H51.0146V407H54.7646V407.75H53.2646V412.25H54.7646V413H51.0146V412.25H52.5146ZM56.2676 407H57.0176V408.5H57.7676V409.25H57.0176V413H56.2676V407ZM59.2676 410.75H58.5176V410H59.2676V407H60.0176V413H59.2676V410.75ZM58.5176 410H57.7676V409.25H58.5176V410ZM61.5205 407H65.2705V407.75H62.2705V409.25H64.5205V410H62.2705V412.25H65.2705V413H61.5205V407Z" fill="white" fill-opacity="0.5"/>
<path d="M24.75 464H27.75V464.75H25.5V469.25H27.75V470H24.75V464ZM27.75 464.75H28.5V469.25H27.75V464.75ZM30.0029 464H33.7529V464.75H30.7529V466.25H33.0029V467H30.7529V469.25H33.7529V470H30.0029V464ZM35.2559 464.75H36.0059V466.25H35.2559V464.75ZM36.0059 466.25H38.2559V467H36.0059V466.25ZM38.2559 469.25V470H36.0059V469.25H38.2559ZM36.0059 469.25H35.2559V468.5H36.0059V469.25ZM38.2559 467H39.0059V469.25H38.2559V467ZM36.0059 464H38.2559V464.75H36.0059V464ZM38.2559 464.75H39.0059V465.5H38.2559V464.75ZM40.5088 464.75H41.2588V469.25H40.5088V464.75ZM41.2588 469.25H43.5088V470H41.2588V469.25ZM43.5088 468.5H44.2588V469.25H43.5088V468.5ZM41.2588 464H43.5088V464.75H41.2588V464ZM43.5088 464.75H44.2588V465.5H43.5088V464.75ZM45.7617 464H49.5117V464.75H46.5117V466.25H48.7617V467H46.5117V469.25H49.5117V470H45.7617V464ZM51.0146 464H51.7646V465.5H52.5146V466.25H51.7646V470H51.0146V464ZM54.0146 467.75H53.2646V467H54.0146V464H54.7646V470H54.0146V467.75ZM53.2646 467H52.5146V466.25H53.2646V467ZM56.2676 464H59.2676V464.75H57.0176V469.25H59.2676V470H56.2676V464ZM59.2676 464.75H60.0176V469.25H59.2676V464.75ZM61.5205 464H65.2705V464.75H62.2705V466.25H64.5205V467H62.2705V469.25H65.2705V470H61.5205V464ZM66.7734 464H69.7734V464.75H67.5234V467H69.7734V468.5H69.0234V467.75H67.5234V470H66.7734V464ZM69.7734 464.75H70.5234V467H69.7734V464.75ZM69.7734 468.5H70.5234V470H69.7734V468.5Z" fill="white" fill-opacity="0.5"/>
<path d="M404.232 79H404.982V84.25H404.232V79ZM404.982 84.25H407.232V85H404.982V84.25ZM407.232 79H407.982V84.25H407.232V79ZM409.485 82H410.985V80.5H411.735V82H413.235V82.75H411.735V84.25H410.985V82.75H409.485V82ZM414.738 79.75H415.488V82H416.238V82.75H415.488V84.25H414.738V79.75ZM415.488 84.25H417.738V85H415.488V84.25ZM415.488 79H417.738V79.75H415.488V79ZM417.738 79.75H418.488V84.25H417.738V81.25H416.988V80.5H417.738V79.75ZM416.238 81.25H416.988V82H416.238V81.25ZM419.991 79.75H420.741V82H421.491V82.75H420.741V84.25H419.991V79.75ZM420.741 84.25H422.991V85H420.741V84.25ZM420.741 79H422.991V79.75H420.741V79ZM422.991 79.75H423.741V84.25H422.991V81.25H422.241V80.5H422.991V79.75ZM421.491 81.25H422.241V82H421.491V81.25ZM427.494 79H428.994V85H428.244V83.5H425.244V81.25H425.994V82.75H428.244V79.75H427.494V79ZM426.744 79.75H427.494V80.5H426.744V79.75ZM425.994 80.5H426.744V81.25H425.994V80.5ZM432.747 79H434.247V85H433.497V83.5H430.497V81.25H431.247V82.75H433.497V79.75H432.747V79ZM431.997 79.75H432.747V80.5H431.997V79.75ZM431.247 80.5H431.997V81.25H431.247V80.5Z" fill="white" fill-opacity="0.5"/>
<path d="M422.241 199H423.741V205H422.991V203.5H419.991V201.25H420.741V202.75H422.991V199.75H422.241V199ZM421.491 199.75H422.241V200.5H421.491V199.75ZM420.741 200.5H421.491V201.25H420.741V200.5ZM425.244 199.75H425.994V202H426.744V202.75H425.994V204.25H425.244V199.75ZM425.994 204.25H428.244V205H425.994V204.25ZM425.994 199H428.244V199.75H425.994V199ZM428.244 199.75H428.994V204.25H428.244V201.25H427.494V200.5H428.244V199.75ZM426.744 201.25H427.494V202H426.744V201.25ZM430.497 199.75H431.247V202H431.997V202.75H431.247V204.25H430.497V199.75ZM431.247 204.25H433.497V205H431.247V204.25ZM431.247 199H433.497V199.75H431.247V199ZM433.497 199.75H434.247V204.25H433.497V201.25H432.747V200.5H433.497V199.75ZM431.997 201.25H432.747V202H431.997V201.25Z" fill="white" fill-opacity="0.5"/>
<path d="M419.991 254.75H420.741V255.5H419.991V254.75ZM420.741 254H422.991V254.75H420.741V254ZM422.991 254.75H423.741V256.25H422.991V254.75ZM421.491 256.25H422.991V257H421.491V256.25ZM422.991 257H423.741V259.25H422.991V257ZM422.991 259.25V260H420.741V259.25H422.991ZM420.741 259.25H419.991V258.5H420.741V259.25ZM425.244 254.75H425.994V257H426.744V257.75H425.994V259.25H425.244V254.75ZM425.994 259.25H428.244V260H425.994V259.25ZM425.994 254H428.244V254.75H425.994V254ZM428.244 254.75H428.994V259.25H428.244V256.25H427.494V255.5H428.244V254.75ZM426.744 256.25H427.494V257H426.744V256.25ZM430.497 254.75H431.247V257H431.997V257.75H431.247V259.25H430.497V254.75ZM431.247 259.25H433.497V260H431.247V259.25ZM431.247 254H433.497V254.75H431.247V254ZM433.497 254.75H434.247V259.25H433.497V256.25H432.747V255.5H433.497V254.75ZM431.997 256.25H432.747V257H431.997V256.25Z" fill="white" fill-opacity="0.5"/>
<path d="M430.997 407.75H431.747V410H432.497V410.75H431.747V412.25H430.997V407.75ZM431.747 412.25H433.997V413H431.747V412.25ZM431.747 407H433.997V407.75H431.747V407ZM433.997 407.75H434.747V412.25H433.997V409.25H433.247V408.5H433.997V407.75ZM432.497 409.25H433.247V410H432.497V409.25Z" fill="white" fill-opacity="0.5"/>
<path d="M418.238 467V467.75H415.988V467H418.238ZM421.991 465.5H420.491V464.75H421.991V464H422.741V469.25H424.241V470H420.491V469.25H421.991V465.5ZM425.744 464.75H426.494V467H427.244V467.75H426.494V469.25H425.744V464.75ZM426.494 469.25H428.744V470H426.494V469.25ZM426.494 464H428.744V464.75H426.494V464ZM428.744 464.75H429.494V469.25H428.744V466.25H427.994V465.5H428.744V464.75ZM427.244 466.25H427.994V467H427.244V466.25ZM430.997 464.75H431.747V467H432.497V467.75H431.747V469.25H430.997V464.75ZM431.747 469.25H433.997V470H431.747V469.25ZM431.747 464H433.997V464.75H431.747V464ZM433.997 464.75H434.747V469.25H433.997V466.25H433.247V465.5H433.997V464.75ZM432.497 466.25H433.247V467H432.497V466.25Z" fill="white" fill-opacity="0.5"/>
<path d="M153.249 176.881V187.796H142.335V176.881H153.249ZM142.335 406.086H153.249V395.171H164.164V384.257H185.993V373.342H153.249V362.428H164.164V351.513H175.078V318.77H153.249V329.684H142.335V296.941H153.249V286.026H175.078V242.368H185.993V231.454H196.907V351.513H207.822V373.342H240.565V220.539H229.651V242.368H218.736V220.539H207.822V231.454H196.907V220.539H175.078V209.625H153.249V187.796H295.138V198.71H316.967V209.625H327.881V220.539H338.796V340.599H327.881V384.257H316.967V395.171H284.223V373.342H295.138V307.855H284.223V296.941H295.138V275.112H284.223V264.197H295.138V242.368H284.223V231.454H273.309V220.539H251.48V296.941H262.394V307.855H251.48V329.684H262.394V340.599H251.48V373.342H262.394V384.257H273.309V395.171H284.223V406.086H273.309V417H240.565V406.086H175.078V417H153.249V427.914H142.335V406.086ZM153.249 329.684H164.164V340.599H153.249V329.684ZM207.822 242.368H218.736V351.513H207.822V242.368ZM262.394 318.77H273.309V329.684H262.394V318.77ZM262.394 286.026H273.309V296.941H262.394V286.026ZM273.309 307.855H284.223V318.77H273.309V307.855ZM273.309 275.112H284.223V286.026H273.309V275.112Z" fill="white"/>
</svg>
