<svg width="459" height="562" viewBox="0 0 459 562" fill="none" xmlns="http://www.w3.org/2000/svg">
<path d="M0 0L400.5 0L459 58.5V561.5H0L0 0Z" fill="black"/>
<path d="M400.293 0.5L458.5 58.707V561H0.5V0.5H400.293Z" stroke="white" stroke-opacity="0.25"/>
<g clip-path="url(#clip0_667_946)">
<rect x="140" y="179" width="179.5" height="239.34" fill="black"/>
<path opacity="0.7" d="M319.499 388.4L304.529 403.43L282.134 380.975L289.579 373.45V223.87L282.154 216.425L304.609 193.99L319.499 208.88V388.4Z" fill="white" fill-opacity="0.25"/>
<path d="M140 179L169.9 208.92V388.42L140 418.34V179Z" fill="white" fill-opacity="0.25"/>
<path opacity="0.7" d="M199.821 238.78L169.901 208.92V388.42L199.821 358.5V238.78Z" fill="white" fill-opacity="0.25"/>
<path opacity="0.9" d="M289.58 179H140L169.94 208.92H274.61L282.155 216.425L304.609 193.99L289.58 179Z" fill="white" fill-opacity="0.25"/>
<path opacity="0.8" d="M289.6 418.34H140L169.9 388.42H274.65L282.135 380.975L304.53 403.43L289.6 418.34Z" fill="white" fill-opacity="0.25"/>
<path opacity="0.8" d="M259.68 238.82L282.155 216.425L274.611 208.92H169.94L199.821 238.78L259.68 238.82Z" fill="white" fill-opacity="0.25"/>
<path opacity="0.9" d="M259.681 358.5L282.136 380.955L274.651 388.42H169.901L199.821 358.5H259.681Z" fill="white" fill-opacity="0.25"/>
<path d="M259.68 358.5V238.82L282.154 216.425L289.58 223.87V373.47L282.135 380.975L259.68 358.5Z" fill="white" fill-opacity="0.25"/>
</g>
<rect x="140.5" y="179.5" width="178.5" height="238.34" stroke="black"/>
<line y1="179.75" x2="140" y2="179.75" stroke="white" stroke-opacity="0.25" stroke-width="0.5" stroke-dasharray="2 2"/>
<line x1="293" y1="179.75" x2="459" y2="179.75" stroke="white" stroke-opacity="0.25" stroke-width="0.5" stroke-dasharray="2 2"/>
<line y1="237.75" x2="143" y2="237.75" stroke="white" stroke-opacity="0.25" stroke-width="0.5" stroke-dasharray="2 2"/>
<line x1="320" y1="237.75" x2="459" y2="237.75" stroke="white" stroke-opacity="0.25" stroke-width="0.5" stroke-dasharray="2 2"/>
<line y1="416.75" x2="140" y2="416.75" stroke="white" stroke-opacity="0.25" stroke-width="0.5" stroke-dasharray="2 2"/>
<line x1="291" y1="416.75" x2="459" y2="416.75" stroke="white" stroke-opacity="0.25" stroke-width="0.5" stroke-dasharray="2 2"/>
<line y1="478.25" x2="459" y2="478.25" stroke="white" stroke-opacity="0.25" stroke-width="0.5" stroke-dasharray="2 2"/>
<path d="M24.75 79H25.5V84.25H28.5V85H24.75V79ZM30.0029 80.5H30.7529V82H33.0029V80.5H33.7529V85H33.0029V82.75H30.7529V85H30.0029V80.5ZM31.5029 79H32.2529V79.75H31.5029V79ZM30.7529 79.75H31.5029V80.5H30.7529V79.75ZM32.2529 79.75H33.0029V80.5H32.2529V79.75ZM35.2559 79H39.0059V79.75H37.5059V85H36.7559V79.75H35.2559V79ZM42.0088 84.25V79.75H40.5088V79H44.2588V79.75H42.7588V84.25H44.2588V85H40.5088V84.25H42.0088ZM45.7617 79H46.5117V80.5H47.2617V81.25H46.5117V85H45.7617V79ZM48.7617 82.75H48.0117V82H48.7617V79H49.5117V85H48.7617V82.75ZM48.0117 82H47.2617V81.25H48.0117V82ZM56.2676 79.75H57.0176V84.25H56.2676V79.75ZM57.0176 84.25H59.2676V85H57.0176V84.25ZM59.2676 83.5H60.0176V84.25H59.2676V83.5ZM57.0176 79H59.2676V79.75H57.0176V79ZM59.2676 79.75H60.0176V80.5H59.2676V79.75ZM61.5205 80.5H62.2705V82H64.5205V80.5H65.2705V85H64.5205V82.75H62.2705V85H61.5205V80.5ZM63.0205 79H63.7705V79.75H63.0205V79ZM62.2705 79.75H63.0205V80.5H62.2705V79.75ZM63.7705 79.75H64.5205V80.5H63.7705V79.75ZM66.7734 79H69.7734V79.75H67.5234V82H69.7734V82.75H67.5234V85H66.7734V79ZM69.7734 79.75H70.5234V82H69.7734V79.75ZM73.5264 84.25V79.75H72.0264V79H75.7764V79.75H74.2764V84.25H75.7764V85H72.0264V84.25H73.5264ZM77.2793 79H81.0293V79.75H79.5293V85H78.7793V79.75H77.2793V79ZM82.5322 80.5H83.2822V82H85.5322V80.5H86.2822V85H85.5322V82.75H83.2822V85H82.5322V80.5ZM84.0322 79H84.7822V79.75H84.0322V79ZM83.2822 79.75H84.0322V80.5H83.2822V79.75ZM84.7822 79.75H85.5322V80.5H84.7822V79.75ZM87.7852 79H88.5352V84.25H91.5352V85H87.7852V79ZM98.291 79H99.041V84.25H102.041V85H98.291V79ZM103.544 79H107.294V79.75H104.294V81.25H106.544V82H104.294V84.25H107.294V85H103.544V79ZM108.797 79H112.547V79.75H111.047V85H110.297V79.75H108.797V79ZM114.05 79H117.8V79.75H116.3V85H115.55V79.75H114.05V79ZM119.303 79H123.053V79.75H120.053V81.25H122.303V82H120.053V84.25H123.053V85H119.303V79ZM124.556 79H127.556V79.75H125.306V82H127.556V83.5H126.806V82.75H125.306V85H124.556V79ZM127.556 79.75H128.306V82H127.556V79.75ZM127.556 83.5H128.306V85H127.556V83.5ZM135.062 79H138.062V79.75H135.812V84.25H138.062V85H135.062V79ZM138.062 79.75H138.812V84.25H138.062V79.75Z" fill="white" fill-opacity="0.25"/>
<path d="M146.317 79.75H147.067V84.25H146.317V79.75ZM147.817 85H147.067V84.25H147.817V85ZM147.817 85H148.567V85.75H147.817V85ZM147.817 78.25H148.567V79H147.817V78.25ZM147.067 79H147.817V79.75H147.067V79ZM150.82 79.75H151.57V84.25H150.82V79.75ZM151.57 84.25H153.82V85H151.57V84.25ZM153.82 83.5H154.57V84.25H153.82V83.5ZM151.57 79H153.82V79.75H151.57V79ZM153.82 79.75H154.57V80.5H153.82V79.75ZM156.073 80.5H156.823V84.25H156.073V80.5ZM156.823 84.25H158.323V85H156.823V84.25ZM159.073 80.5H159.823V85H159.073V84.25H158.323V83.5H159.073V80.5ZM164.326 84.25V85H162.076V84.25H164.326ZM162.076 84.25H161.326V83.5H162.076V84.25ZM164.326 80.5V81.25H162.076V80.5H164.326ZM161.326 81.25H162.076V82H161.326V81.25ZM162.076 82H164.326V82.75H162.076V82ZM164.326 82.75H165.076V84.25H164.326V82.75ZM164.326 81.25H165.076V82H164.326V81.25ZM167.329 79H168.079V80.5H170.329V81.25H168.079V84.25H167.329V81.25H166.579V80.5H167.329V79ZM168.079 84.25H169.579V85H168.079V84.25ZM169.579 83.5H170.329V84.25H169.579V83.5ZM172.582 80.5H174.832V81.25H172.582V80.5ZM174.832 81.25H175.582V84.25H174.832V81.25ZM171.832 81.25H172.582V84.25H171.832V81.25ZM172.582 84.25H174.832V85H172.582V84.25ZM177.085 80.5H178.585V81.25H177.835V85H177.085V80.5ZM178.585 81.25H179.335V85H178.585V81.25ZM180.085 81.25H179.335V80.5H180.085V81.25ZM180.085 81.25H180.835V85H180.085V81.25ZM184.588 79.75H185.338V84.25H184.588V79.75ZM183.838 84.25H184.588V85H183.838V84.25ZM183.088 85H183.838V85.75H183.088V85ZM183.088 78.25H183.838V79H183.088V78.25ZM184.588 79.75H183.838V79H184.588V79.75Z" fill="white" fill-opacity="0.25"/>
<path d="M24.75 192.5H25.5V194H27.75V192.5H28.5V197H27.75V194.75H25.5V197H24.75V192.5ZM26.25 191H27V191.75H26.25V191ZM25.5 191.75H26.25V192.5H25.5V191.75ZM27 191.75H27.75V192.5H27V191.75ZM30.0029 191.75H30.7529V193.25H30.0029V191.75ZM30.7529 193.25H33.0029V194H30.7529V193.25ZM33.0029 196.25V197H30.7529V196.25H33.0029ZM30.7529 196.25H30.0029V195.5H30.7529V196.25ZM33.0029 194H33.7529V196.25H33.0029V194ZM30.7529 191H33.0029V191.75H30.7529V191ZM33.0029 191.75H33.7529V192.5H33.0029V191.75ZM35.2559 191.75H36.0059V196.25H35.2559V191.75ZM36.0059 196.25H38.2559V197H36.0059V196.25ZM38.2559 195.5H39.0059V196.25H38.2559V195.5ZM36.0059 191H38.2559V191.75H36.0059V191ZM38.2559 191.75H39.0059V192.5H38.2559V191.75ZM40.5088 191H44.2588V191.75H41.2588V193.25H43.5088V194H41.2588V196.25H44.2588V197H40.5088V191ZM45.7617 191H46.5117V192.5H47.2617V193.25H46.5117V197H45.7617V191ZM48.7617 194.75H48.0117V194H48.7617V191H49.5117V197H48.7617V194.75ZM48.0117 194H47.2617V193.25H48.0117V194ZM51.0146 191H54.0146V191.75H51.7646V196.25H54.0146V197H51.0146V191ZM54.0146 191.75H54.7646V196.25H54.0146V191.75ZM56.2676 191H60.0176V191.75H57.0176V193.25H59.2676V194H57.0176V196.25H60.0176V197H56.2676V191ZM61.5205 191H64.5205V191.75H62.2705V194H64.5205V195.5H63.7705V194.75H62.2705V197H61.5205V191ZM64.5205 191.75H65.2705V194H64.5205V191.75ZM64.5205 195.5H65.2705V197H64.5205V195.5ZM69.0234 191.75H69.7734V193.25H69.0234V191.75ZM66.7734 196.25H67.5234V197.75H66.7734V196.25ZM67.5234 194.75H68.2734V196.25H67.5234V194.75ZM68.2734 193.25H69.0234V194.75H68.2734V193.25ZM69.7734 190.25H70.5234V191.75H69.7734V190.25ZM24.75 202.75H25.5V207.25H24.75V202.75ZM25.5 207.25H27.75V208H25.5V207.25ZM27.75 206.5H28.5V207.25H27.75V206.5ZM25.5 202H27.75V202.75H25.5V202ZM27.75 202.75H28.5V203.5H27.75V202.75ZM30.0029 203.5H30.7529V205H33.0029V203.5H33.7529V208H33.0029V205.75H30.7529V208H30.0029V203.5ZM31.5029 202H32.2529V202.75H31.5029V202ZM30.7529 202.75H31.5029V203.5H30.7529V202.75ZM32.2529 202.75H33.0029V203.5H32.2529V202.75ZM35.2559 202H38.2559V202.75H36.0059V205H38.2559V205.75H36.0059V208H35.2559V202ZM38.2559 202.75H39.0059V205H38.2559V202.75ZM45.7617 202H46.5117V204.25H48.7617V202H49.5117V208H48.7617V205H46.5117V208H45.7617V202ZM51.0146 202H54.7646V202.75H51.7646V204.25H54.0146V205H51.7646V207.25H54.7646V208H51.0146V202ZM57.7676 207.25V202.75H56.2676V202H60.0176V202.75H58.5176V207.25H60.0176V208H56.2676V207.25H57.7676ZM61.5205 202.75H62.2705V207.25H61.5205V202.75ZM62.2705 207.25H64.5205V208H62.2705V207.25ZM64.5205 205.75H63.7705V205H65.2705V207.25H64.5205V205.75ZM62.2705 202H64.5205V202.75H62.2705V202ZM64.5205 202.75H65.2705V203.5H64.5205V202.75ZM66.7734 202H67.5234V204.25H69.7734V202H70.5234V208H69.7734V205H67.5234V208H66.7734V202ZM72.0264 202H75.7764V202.75H74.2764V208H73.5264V202.75H72.0264V202Z" fill="white" fill-opacity="0.25"/>
<path d="M27.75 254.75H28.5V257H27.75V254.75ZM24.75 254.75H25.5V257H24.75V254.75ZM26.25 253.25H25.5V252.5H26.25V253.25ZM26.25 253.25H27V254H26.25V253.25ZM27 252.5H27.75V253.25H27V252.5ZM25.5 252.5H24.75V251H25.5V252.5ZM25.5 254H26.25V254.75H25.5V254ZM27.75 251H28.5V252.5H27.75V251ZM27 254H27.75V254.75H27V254ZM33.0029 254V254.75H30.7529V254H33.0029ZM35.2559 251H36.0059V253.25H38.2559V251H39.0059V257H38.2559V254H36.0059V257H35.2559V251ZM40.5088 251H44.2588V251.75H41.2588V253.25H43.5088V254H41.2588V256.25H44.2588V257H40.5088V251ZM47.2617 256.25V251.75H45.7617V251H49.5117V251.75H48.0117V256.25H49.5117V257H45.7617V256.25H47.2617ZM51.0146 251.75H51.7646V256.25H51.0146V251.75ZM51.7646 256.25H54.0146V257H51.7646V256.25ZM54.0146 254.75H53.2646V254H54.7646V256.25H54.0146V254.75ZM51.7646 251H54.0146V251.75H51.7646V251ZM54.0146 251.75H54.7646V252.5H54.0146V251.75ZM56.2676 251H57.0176V253.25H59.2676V251H60.0176V257H59.2676V254H57.0176V257H56.2676V251ZM61.5205 251H65.2705V251.75H63.7705V257H63.0205V251.75H61.5205V251Z" fill="white" fill-opacity="0.25"/>
<path d="M24.75 432H27.75V432.75H25.5V434.25H27.75V435H25.5V437.25H27.75V438H24.75V432ZM27.75 435H28.5V437.25H27.75V435ZM27.75 432.75H28.5V434.25H27.75V432.75ZM30.0029 433.5H30.7529V435H33.0029V433.5H33.7529V438H33.0029V435.75H30.7529V438H30.0029V433.5ZM31.5029 432H32.2529V432.75H31.5029V432ZM30.7529 432.75H31.5029V433.5H30.7529V432.75ZM32.2529 432.75H33.0029V433.5H32.2529V432.75ZM35.2559 432.75H36.0059V434.25H35.2559V432.75ZM36.0059 434.25H38.2559V435H36.0059V434.25ZM38.2559 437.25V438H36.0059V437.25H38.2559ZM36.0059 437.25H35.2559V436.5H36.0059V437.25ZM38.2559 435H39.0059V437.25H38.2559V435ZM36.0059 432H38.2559V432.75H36.0059V432ZM38.2559 432.75H39.0059V433.5H38.2559V432.75ZM40.5088 432H44.2588V432.75H41.2588V434.25H43.5088V435H41.2588V437.25H44.2588V438H40.5088V432ZM45.7617 432H46.5117V437.25H49.5117V438H45.7617V432ZM52.5146 437.25V432.75H51.0146V432H54.7646V432.75H53.2646V437.25H54.7646V438H51.0146V437.25H52.5146ZM56.2676 432H57.0176V433.5H57.7676V434.25H57.0176V438H56.2676V432ZM59.2676 435.75H58.5176V435H59.2676V432H60.0176V438H59.2676V435.75ZM58.5176 435H57.7676V434.25H58.5176V435ZM61.5205 432H65.2705V432.75H62.2705V434.25H64.5205V435H62.2705V437.25H65.2705V438H61.5205V432Z" fill="white" fill-opacity="0.25"/>
<path d="M24.75 492.5H27.75V493.25H25.5V497.75H27.75V498.5H24.75V492.5ZM27.75 493.25H28.5V497.75H27.75V493.25ZM30.0029 492.5H33.7529V493.25H30.7529V494.75H33.0029V495.5H30.7529V497.75H33.7529V498.5H30.0029V492.5ZM35.2559 493.25H36.0059V494.75H35.2559V493.25ZM36.0059 494.75H38.2559V495.5H36.0059V494.75ZM38.2559 497.75V498.5H36.0059V497.75H38.2559ZM36.0059 497.75H35.2559V497H36.0059V497.75ZM38.2559 495.5H39.0059V497.75H38.2559V495.5ZM36.0059 492.5H38.2559V493.25H36.0059V492.5ZM38.2559 493.25H39.0059V494H38.2559V493.25ZM40.5088 493.25H41.2588V497.75H40.5088V493.25ZM41.2588 497.75H43.5088V498.5H41.2588V497.75ZM43.5088 497H44.2588V497.75H43.5088V497ZM41.2588 492.5H43.5088V493.25H41.2588V492.5ZM43.5088 493.25H44.2588V494H43.5088V493.25ZM45.7617 492.5H49.5117V493.25H46.5117V494.75H48.7617V495.5H46.5117V497.75H49.5117V498.5H45.7617V492.5ZM51.0146 492.5H51.7646V494H52.5146V494.75H51.7646V498.5H51.0146V492.5ZM54.0146 496.25H53.2646V495.5H54.0146V492.5H54.7646V498.5H54.0146V496.25ZM53.2646 495.5H52.5146V494.75H53.2646V495.5ZM56.2676 492.5H59.2676V493.25H57.0176V497.75H59.2676V498.5H56.2676V492.5ZM59.2676 493.25H60.0176V497.75H59.2676V493.25ZM61.5205 492.5H65.2705V493.25H62.2705V494.75H64.5205V495.5H62.2705V497.75H65.2705V498.5H61.5205V492.5ZM66.7734 492.5H69.7734V493.25H67.5234V495.5H69.7734V497H69.0234V496.25H67.5234V498.5H66.7734V492.5ZM69.7734 493.25H70.5234V495.5H69.7734V493.25ZM69.7734 497H70.5234V498.5H69.7734V497Z" fill="white" fill-opacity="0.25"/>
<path d="M404.232 79H404.982V84.25H404.232V79ZM404.982 84.25H407.232V85H404.982V84.25ZM407.232 79H407.982V84.25H407.232V79ZM409.485 82H410.985V80.5H411.735V82H413.235V82.75H411.735V84.25H410.985V82.75H409.485V82ZM414.738 79.75H415.488V82H416.238V82.75H415.488V84.25H414.738V79.75ZM415.488 84.25H417.738V85H415.488V84.25ZM415.488 79H417.738V79.75H415.488V79ZM417.738 79.75H418.488V84.25H417.738V81.25H416.988V80.5H417.738V79.75ZM416.238 81.25H416.988V82H416.238V81.25ZM419.991 79.75H420.741V82H421.491V82.75H420.741V84.25H419.991V79.75ZM420.741 84.25H422.991V85H420.741V84.25ZM420.741 79H422.991V79.75H420.741V79ZM422.991 79.75H423.741V84.25H422.991V81.25H422.241V80.5H422.991V79.75ZM421.491 81.25H422.241V82H421.491V81.25ZM427.494 79H428.994V85H428.244V83.5H425.244V81.25H425.994V82.75H428.244V79.75H427.494V79ZM426.744 79.75H427.494V80.5H426.744V79.75ZM425.994 80.5H426.744V81.25H425.994V80.5ZM432.747 79H434.247V85H433.497V83.5H430.497V81.25H431.247V82.75H433.497V79.75H432.747V79ZM431.997 79.75H432.747V80.5H431.997V79.75ZM431.247 80.5H431.997V81.25H431.247V80.5Z" fill="white" fill-opacity="0.25"/>
<path d="M422.241 191H423.741V197H422.991V195.5H419.991V193.25H420.741V194.75H422.991V191.75H422.241V191ZM421.491 191.75H422.241V192.5H421.491V191.75ZM420.741 192.5H421.491V193.25H420.741V192.5ZM425.244 191.75H425.994V194H426.744V194.75H425.994V196.25H425.244V191.75ZM425.994 196.25H428.244V197H425.994V196.25ZM425.994 191H428.244V191.75H425.994V191ZM428.244 191.75H428.994V196.25H428.244V193.25H427.494V192.5H428.244V191.75ZM426.744 193.25H427.494V194H426.744V193.25ZM430.497 191.75H431.247V194H431.997V194.75H431.247V196.25H430.497V191.75ZM431.247 196.25H433.497V197H431.247V196.25ZM431.247 191H433.497V191.75H431.247V191ZM433.497 191.75H434.247V196.25H433.497V193.25H432.747V192.5H433.497V191.75ZM431.997 193.25H432.747V194H431.997V193.25Z" fill="white" fill-opacity="0.25"/>
<path d="M419.991 251.75H420.741V252.5H419.991V251.75ZM420.741 251H422.991V251.75H420.741V251ZM422.991 251.75H423.741V253.25H422.991V251.75ZM421.491 253.25H422.991V254H421.491V253.25ZM422.991 254H423.741V256.25H422.991V254ZM422.991 256.25V257H420.741V256.25H422.991ZM420.741 256.25H419.991V255.5H420.741V256.25ZM425.244 251.75H425.994V254H426.744V254.75H425.994V256.25H425.244V251.75ZM425.994 256.25H428.244V257H425.994V256.25ZM425.994 251H428.244V251.75H425.994V251ZM428.244 251.75H428.994V256.25H428.244V253.25H427.494V252.5H428.244V251.75ZM426.744 253.25H427.494V254H426.744V253.25ZM430.497 251.75H431.247V254H431.997V254.75H431.247V256.25H430.497V251.75ZM431.247 256.25H433.497V257H431.247V256.25ZM431.247 251H433.497V251.75H431.247V251ZM433.497 251.75H434.247V256.25H433.497V253.25H432.747V252.5H433.497V251.75ZM431.997 253.25H432.747V254H431.997V253.25Z" fill="white" fill-opacity="0.25"/>
<path d="M430.997 432.75H431.747V435H432.497V435.75H431.747V437.25H430.997V432.75ZM431.747 437.25H433.997V438H431.747V437.25ZM431.747 432H433.997V432.75H431.747V432ZM433.997 432.75H434.747V437.25H433.997V434.25H433.247V433.5H433.997V432.75ZM432.497 434.25H433.247V435H432.497V434.25Z" fill="white" fill-opacity="0.25"/>
<path d="M418.238 495.5V496.25H415.988V495.5H418.238ZM421.991 494H420.491V493.25H421.991V492.5H422.741V497.75H424.241V498.5H420.491V497.75H421.991V494ZM425.744 493.25H426.494V495.5H427.244V496.25H426.494V497.75H425.744V493.25ZM426.494 497.75H428.744V498.5H426.494V497.75ZM426.494 492.5H428.744V493.25H426.494V492.5ZM428.744 493.25H429.494V497.75H428.744V494.75H427.994V494H428.744V493.25ZM427.244 494.75H427.994V495.5H427.244V494.75ZM430.997 493.25H431.747V495.5H432.497V496.25H431.747V497.75H430.997V493.25ZM431.747 497.75H433.997V498.5H431.747V497.75ZM431.747 492.5H433.997V493.25H431.747V492.5ZM433.997 493.25H434.747V497.75H433.997V494.75H433.247V494H433.997V493.25ZM432.497 494.75H433.247V495.5H432.497V494.75Z" fill="white" fill-opacity="0.25"/>
<defs>
<clipPath id="clip0_667_946">
<rect x="140" y="179" width="179.5" height="239.34" fill="white"/>
</clipPath>
</defs>
</svg>
