<svg width="842" height="471" viewBox="0 0 842 471" fill="none" xmlns="http://www.w3.org/2000/svg">
<path d="M841.875 0L440.156 0L436.289 3.75L405.586 3.75L401.719 0L0 0L0 108.75C0 108.75 0.9375 113.437 2.34375 115.781C3.75 118.125 7.5 122.812 7.5 122.812H0L0 442.5C0 458.033 12.592 470.625 28.125 470.625H813.75C829.283 470.625 841.875 458.033 841.875 442.5V122.812H834.375C834.375 122.812 838.125 118.125 839.531 115.781C840.937 113.437 841.875 108.75 841.875 108.75V0Z" fill="black"/>
<path d="M401.528 0.46875L405.26 4.08691L405.395 4.21875L436.479 4.21875L436.615 4.08691L440.347 0.46875L841.406 0.46875V108.703C841.406 108.705 841.406 108.706 841.405 108.708C841.398 108.742 841.388 108.793 841.374 108.858C841.346 108.989 841.304 109.179 841.25 109.414C841.141 109.885 840.982 110.537 840.779 111.261C840.37 112.722 839.797 114.426 839.129 115.54C838.441 116.687 837.167 118.426 836.053 119.893C835.498 120.622 834.987 121.279 834.614 121.754C834.428 121.991 834.277 122.183 834.172 122.315C834.12 122.381 834.078 122.432 834.051 122.467C834.037 122.484 834.027 122.498 834.019 122.507C834.016 122.511 834.013 122.514 834.012 122.517L834.009 122.52L833.399 123.281H841.406V442.5C841.406 457.774 829.024 470.156 813.75 470.156H28.125C12.8509 470.156 0.46875 457.774 0.46875 442.5L0.46875 123.281H8.47559L7.86621 122.52L7.86328 122.517C7.86154 122.514 7.85892 122.511 7.85547 122.507C7.84843 122.498 7.83802 122.484 7.82422 122.467C7.79662 122.432 7.75543 122.381 7.70312 122.315C7.59829 122.183 7.44695 121.991 7.26074 121.754C6.88831 121.279 6.37695 120.622 5.82227 119.893C4.7077 118.426 3.43421 116.687 2.74609 115.54C2.07797 114.426 1.5049 112.722 1.0957 111.261C0.893078 110.537 0.733668 109.885 0.625 109.414C0.570736 109.179 0.528886 108.989 0.500977 108.858C0.487023 108.793 0.476728 108.742 0.469727 108.708C0.469382 108.706 0.469077 108.705 0.46875 108.703L0.46875 0.46875L401.528 0.46875Z" stroke="white" stroke-opacity="0.5" stroke-width="0.9375"/>
<path d="M626.249 377.812C672.33 377.812 709.686 340.455 709.686 294.374C709.686 248.293 672.33 210.937 626.249 210.937" stroke="white" stroke-opacity="0.5" stroke-width="0.9375"/>
<rect x="248.439" y="198.24" width="345" height="192.187" rx="9.375" fill="black"/>
<rect x="248.908" y="198.709" width="344.062" height="191.25" rx="8.90625" stroke="white" stroke-opacity="0.5" stroke-width="0.9375"/>
<path d="M269.405 224.445H271.405V224.945H269.905V227.945H271.405V228.445H269.405V224.445ZM271.405 224.945H271.905V227.945H271.405V224.945ZM272.906 225.445H273.406V226.445H274.906V225.445H275.406V228.445H274.906V226.945H273.406V228.445H272.906V225.445ZM273.906 224.445H274.406V224.945H273.906V224.445ZM273.406 224.945H273.906V225.445H273.406V224.945ZM274.406 224.945H274.906V225.445H274.406V224.945ZM276.408 225.445H276.908V226.445H278.408V225.445H278.908V228.445H278.408V226.945H276.908V228.445H276.408V225.445ZM277.408 224.445H277.908V224.945H277.408V224.445ZM276.908 224.945H277.408V225.445H276.908V224.945ZM277.908 224.945H278.408V225.445H277.908V224.945ZM279.91 224.945H280.41V225.945H279.91V224.945ZM280.41 225.945H281.91V226.445H280.41V225.945ZM281.91 227.945V228.445H280.41V227.945H281.91ZM280.41 227.945H279.91V227.445H280.41V227.945ZM281.91 226.445H282.41V227.945H281.91V226.445ZM280.41 224.445H281.91V224.945H280.41V224.445ZM281.91 224.945H282.41V225.445H281.91V224.945ZM287.414 224.945H287.914V227.945H287.414V224.945ZM288.414 228.445H287.914V227.945H288.414V228.445ZM288.414 228.445H288.914V228.945H288.414V228.445ZM288.414 223.945H288.914V224.445H288.414V223.945ZM287.914 224.445H288.414V224.945H287.914V224.445ZM290.416 224.945H290.916V227.945H290.416V224.945ZM290.916 227.945H292.416V228.445H290.916V227.945ZM292.416 226.945H291.916V226.445H292.916V227.945H292.416V226.945ZM290.916 224.445H292.416V224.945H290.916V224.445ZM292.416 224.945H292.916V225.445H292.416V224.945ZM293.918 224.445H295.918V224.945H294.418V226.445H295.918V227.445H295.418V226.945H294.418V228.445H293.918V224.445ZM295.918 224.945H296.418V226.445H295.918V224.945ZM295.918 227.445H296.418V228.445H295.918V227.445ZM297.42 225.445H297.92V226.445H299.42V225.445H299.92V228.445H299.42V226.945H297.92V228.445H297.42V225.445ZM298.42 224.445H298.92V224.945H298.42V224.445ZM297.92 224.945H298.42V225.445H297.92V224.945ZM298.92 224.945H299.42V225.445H298.92V224.945ZM300.922 224.445H302.922V224.945H301.422V226.445H302.922V226.945H301.422V228.445H300.922V224.445ZM302.922 224.945H303.422V226.445H302.922V224.945ZM304.424 224.445H304.924V225.945H306.424V224.445H306.924V228.445H306.424V226.445H304.924V228.445H304.424V224.445ZM308.926 227.945V224.945H307.926V224.445H310.426V224.945H309.426V227.945H310.426V228.445H307.926V227.945H308.926ZM311.428 224.945H311.928V227.945H311.428V224.945ZM311.928 227.945H313.428V228.445H311.928V227.945ZM313.428 227.445H313.928V227.945H313.428V227.445ZM311.928 224.445H313.428V224.945H311.928V224.445ZM313.428 224.945H313.928V225.445H313.428V224.945ZM314.93 224.945H315.43V225.945H314.93V224.945ZM315.43 225.945H316.93V226.445H315.43V225.945ZM316.93 227.945V228.445H315.43V227.945H316.93ZM315.43 227.945H314.93V227.445H315.43V227.945ZM316.93 226.445H317.43V227.945H316.93V226.445ZM315.43 224.445H316.93V224.945H315.43V224.445ZM316.93 224.945H317.43V225.445H316.93V224.945ZM319.932 224.945H320.432V227.945H319.932V224.945ZM319.432 227.945H319.932V228.445H319.432V227.945ZM318.932 228.445H319.432V228.945H318.932V228.445ZM318.932 223.945H319.432V224.445H318.932V223.945ZM319.932 224.945H319.432V224.445H319.932V224.945Z" fill="white" fill-opacity="0.5"/>
<path d="M271.679 261.376H270.179V258.376H271.679V261.376ZM271.679 261.376H273.179V262.876H271.679V261.376ZM268.679 250.876H270.179V258.376H268.679V250.876ZM274.679 250.876H276.179V258.376H274.679V250.876ZM273.179 258.376H274.679V261.376H273.179V258.376ZM282.185 261.376V252.376H279.185V250.876H286.685V252.376H283.685V261.376H286.685V262.876H279.185V261.376H282.185ZM289.691 250.876H295.691V252.376H291.191V261.376H295.691V262.876H289.691V250.876ZM295.691 252.376H297.191V261.376H295.691V252.376ZM300.197 250.876H307.697V252.376H301.697V255.376H306.197V256.876H301.697V261.376H307.697V262.876H300.197V250.876ZM310.703 252.376H312.203V261.376H310.703V252.376ZM312.203 261.376H316.703V262.876H312.203V261.376ZM316.703 252.376H318.203V261.376H316.703V252.376ZM312.203 250.876H316.703V252.376H312.203V250.876ZM331.715 252.376H333.215V261.376H331.715V252.376ZM333.215 261.376H337.715V262.876H333.215V261.376ZM337.715 259.876H339.215V261.376H337.715V259.876ZM333.215 250.876H337.715V252.376H333.215V250.876ZM337.715 252.376H339.215V253.876H337.715V252.376ZM342.22 253.876H343.72V256.876H348.22V253.876H349.72V262.876H348.22V258.376H343.72V262.876H342.22V253.876ZM345.22 250.876H346.72V252.376H345.22V250.876ZM343.72 252.376H345.22V253.876H343.72V252.376ZM346.72 252.376H348.22V253.876H346.72V252.376ZM352.726 252.376H354.226V255.376H352.726V252.376ZM354.226 255.376H358.726V256.876H354.226V255.376ZM358.726 261.376V262.876H354.226V261.376H358.726ZM354.226 261.376H352.726V259.876H354.226V261.376ZM358.726 256.876H360.226V261.376H358.726V256.876ZM354.226 250.876H358.726V252.376H354.226V250.876ZM358.726 252.376H360.226V253.876H358.726V252.376ZM363.232 252.376H364.732V255.376H363.232V252.376ZM364.732 255.376H369.232V256.876H364.732V255.376ZM369.232 261.376V262.876H364.732V261.376H369.232ZM364.732 261.376H363.232V259.876H364.732V261.376ZM369.232 256.876H370.732V261.376H369.232V256.876ZM364.732 250.876H369.232V252.376H364.732V250.876ZM369.232 252.376H370.732V253.876H369.232V252.376ZM373.738 250.876H381.238V252.376H375.238V255.376H379.738V256.876H375.238V261.376H381.238V262.876H373.738V250.876ZM384.244 250.876H391.744V252.376H388.744V262.876H387.244V252.376H384.244V250.876ZM394.75 250.876H402.25V252.376H399.25V262.876H397.75V252.376H394.75V250.876ZM405.256 250.876H412.756V252.376H406.756V255.376H411.256V256.876H406.756V261.376H412.756V262.876H405.256V250.876ZM520.82 250.876H526.82V252.376H522.32V261.376H526.82V262.876H520.82V250.876ZM526.82 252.376H528.32V261.376H526.82V252.376ZM537.326 256.876V258.376H532.826V256.876H537.326ZM544.832 253.876H541.832V252.376H544.832V250.876H546.332V261.376H549.332V262.876H541.832V261.376H544.832V253.876ZM552.338 259.876H553.838V261.376H559.838V262.876H552.338V259.876ZM558.338 252.376H553.838V250.876H558.338V252.376ZM558.338 252.376H559.838V255.376H558.338V252.376ZM553.838 258.376H555.338V259.876H553.838V258.376ZM552.338 252.376H553.838V253.876H552.338V252.376ZM556.838 255.376H558.338V256.876H556.838V255.376ZM555.338 256.876H556.838V258.376H555.338V256.876ZM562.843 252.376H564.343V256.876H565.843V258.376H564.343V261.376H562.843V252.376ZM564.343 261.376H568.843V262.876H564.343V261.376ZM564.343 250.876H568.843V252.376H564.343V250.876ZM568.843 252.376H570.343V261.376H568.843V255.376H567.343V253.876H568.843V252.376ZM565.843 255.376H567.343V256.876H565.843V255.376ZM267.679 282.876H268.179V286.376H270.179V286.876H267.679V282.876ZM271.181 282.876H273.681V283.376H271.681V284.376H273.181V284.876H271.681V286.376H273.681V286.876H271.181V282.876ZM274.683 282.876H275.183V283.876H275.683V284.376H275.183V286.876H274.683V282.876ZM276.683 285.376H276.183V284.876H276.683V282.876H277.183V286.876H276.683V285.376ZM276.183 284.876H275.683V284.376H276.183V284.876ZM278.185 283.376H278.685V286.376H278.185V283.376ZM278.685 286.376H280.185V286.876H278.685V286.376ZM280.185 285.376H279.685V284.876H280.685V286.376H280.185V285.376ZM278.685 282.876H280.185V283.376H278.685V282.876ZM280.185 283.376H280.685V283.876H280.185V283.376ZM281.687 282.876H284.187V283.376H283.187V286.876H282.687V283.376H281.687V282.876ZM285.189 282.876H285.689V284.376H287.189V282.876H287.689V286.876H287.189V284.876H285.689V286.876H285.189V282.876ZM289.691 285.876H290.191V286.876H289.691V285.876ZM289.691 283.876H290.191V284.876H289.691V283.876ZM295.695 285.876H296.195V286.376H298.195V286.876H295.695V285.876ZM297.695 283.376H296.195V282.876H297.695V283.376ZM297.695 283.376H298.195V284.376H297.695V283.376ZM296.195 285.376H296.695V285.876H296.195V285.376ZM295.695 283.376H296.195V283.876H295.695V283.376ZM297.195 284.376H297.695V284.876H297.195V284.376ZM296.695 284.876H297.195V285.376H296.695V284.876ZM300.697 282.876H301.697V286.876H301.197V285.876H299.197V284.376H299.697V285.376H301.197V283.376H300.697V282.876ZM300.197 283.376H300.697V283.876H300.197V283.376ZM299.697 283.876H300.197V284.376H299.697V283.876ZM303.199 282.876H304.699V283.376H303.199V282.876ZM302.699 283.376H303.199V284.376H304.699V284.876H303.199V286.376H302.699V283.376ZM304.699 284.876H305.199V286.376H304.699V284.876ZM303.199 286.376H304.699V286.876H303.199V286.376ZM304.699 283.376H305.199V283.876H304.699V283.376ZM309.703 282.876H310.203V283.876H310.703V284.376H310.203V286.876H309.703V282.876ZM311.703 284.376H311.203V283.876H311.703V282.876H312.203V286.876H311.703V284.376ZM310.703 284.376H311.203V285.376H310.703V284.376ZM314.205 286.376V283.376H313.205V282.876H315.705V283.376H314.705V286.376H315.705V286.876H313.205V286.376H314.205ZM316.707 282.876H317.207V283.876H317.707V284.376H317.207V286.876H316.707V282.876ZM318.707 285.376H318.207V284.876H318.707V282.876H319.207V286.876H318.707V285.376ZM318.207 284.876H317.707V284.376H318.207V284.876ZM320.209 282.876H320.709V286.376H320.209V282.876ZM320.709 286.376H322.209V286.876H320.709V286.376ZM322.209 282.876H322.709V286.376H322.209V282.876ZM323.711 282.876H326.211V283.376H325.211V286.876H324.711V283.376H323.711V282.876ZM327.213 282.876H329.713V283.376H327.713V284.376H329.213V284.876H327.713V286.376H329.713V286.876H327.213V282.876ZM330.715 283.376H331.215V284.376H330.715V283.376ZM331.215 284.376H332.715V284.876H331.215V284.376ZM332.715 286.376V286.876H331.215V286.376H332.715ZM331.215 286.376H330.715V285.876H331.215V286.376ZM332.715 284.876H333.215V286.376H332.715V284.876ZM331.215 282.876H332.715V283.376H331.215V282.876ZM332.715 283.376H333.215V283.876H332.715V283.376ZM267.679 290.876H270.179V291.376H268.179V292.376H269.679V292.876H268.179V294.376H270.179V294.876H267.679V290.876ZM273.181 293.376H273.681V294.876H273.181V293.376ZM271.181 293.376H271.681V294.876H271.181V293.376ZM272.181 292.376H271.681V291.876H272.181V292.376ZM272.181 292.376H272.681V292.876H272.181V292.376ZM272.681 291.876H273.181V292.376H272.681V291.876ZM271.681 291.876H271.181V290.876H271.681V291.876ZM271.681 292.876H272.181V293.376H271.681V292.876ZM273.181 290.876H273.681V291.876H273.181V290.876ZM272.681 292.876H273.181V293.376H272.681V292.876ZM274.683 290.876H277.183V291.376H276.183V294.876H275.683V291.376H274.683V290.876ZM278.185 290.876H280.685V291.376H278.685V292.376H280.185V292.876H278.685V294.376H280.685V294.876H278.185V290.876ZM281.687 290.876H282.187V291.876H282.687V292.376H282.187V294.876H281.687V290.876ZM283.687 293.376H283.187V292.876H283.687V290.876H284.187V294.876H283.687V293.376ZM283.187 292.876H282.687V292.376H283.187V292.876ZM285.189 290.876H287.189V291.376H285.689V294.376H287.189V294.876H285.189V290.876ZM287.189 291.376H287.689V294.376H287.189V291.376ZM288.691 290.876H291.191V291.376H289.191V292.376H290.691V292.876H289.191V294.376H291.191V294.876H288.691V290.876ZM292.193 290.876H294.193V291.376H292.693V294.376H294.193V294.876H292.193V290.876ZM294.193 291.376H294.693V294.376H294.193V291.376ZM299.197 290.876H301.197V291.376H299.697V292.876H301.197V293.376H299.697V294.876H299.197V290.876ZM301.197 291.376H301.697V292.876H301.197V291.376ZM302.699 290.876H303.199V294.376H305.199V294.876H302.699V290.876ZM306.201 291.876H306.701V292.876H308.201V291.876H308.701V294.876H308.201V293.376H306.701V294.876H306.201V291.876ZM307.201 290.876H307.701V291.376H307.201V290.876ZM306.701 291.376H307.201V291.876H306.701V291.376ZM307.701 291.376H308.201V291.876H307.701V291.376ZM309.703 290.876H310.203V292.376H309.703V290.876ZM311.703 290.876H312.203V292.376H311.703V290.876ZM310.703 292.876H311.203V294.876H310.703V292.876ZM310.203 292.376H310.703V292.876H310.203V292.376ZM311.203 292.376H311.703V292.876H311.203V292.376ZM314.205 293.876H314.705V294.876H314.205V293.876ZM314.205 291.876H314.705V292.876H314.205V291.876ZM320.709 290.876H322.209V291.376H320.709V290.876ZM320.209 291.376H320.709V292.376H322.209V292.876H320.709V294.376H320.209V291.376ZM322.209 292.876H322.709V294.376H322.209V292.876ZM320.709 294.376H322.209V294.876H320.709V294.376ZM322.209 291.376H322.709V291.876H322.209V291.376ZM327.213 290.876H327.713V292.376H329.213V290.876H329.713V294.876H329.213V292.876H327.713V294.876H327.213V290.876ZM330.715 291.376H331.215V294.376H330.715V291.376ZM331.215 294.376H332.715V294.876H331.215V294.376ZM332.715 291.376H333.215V294.376H332.715V291.376ZM331.215 290.876H332.715V291.376H331.215V290.876ZM334.217 290.876H334.717V294.376H334.217V290.876ZM334.717 294.376H336.217V294.876H334.717V294.376ZM336.217 290.876H336.717V294.376H336.217V290.876ZM337.719 290.876H339.719V291.376H338.219V292.876H339.719V293.876H339.219V293.376H338.219V294.876H337.719V290.876ZM339.719 291.376H340.219V292.876H339.719V291.376ZM339.719 293.876H340.219V294.876H339.719V293.876ZM341.22 291.376H341.72V292.376H341.22V291.376ZM341.72 292.376H343.22V292.876H341.72V292.376ZM343.22 294.376V294.876H341.72V294.376H343.22ZM341.72 294.376H341.22V293.876H341.72V294.376ZM343.22 292.876H343.72V294.376H343.22V292.876ZM341.72 290.876H343.22V291.376H341.72V290.876ZM343.22 291.376H343.72V291.876H343.22V291.376ZM267.679 308.376H268.179V309.376H267.679V308.376ZM268.179 309.376H269.679V309.876H268.179V309.376ZM269.679 311.376V311.876H268.179V311.376H269.679ZM268.179 311.376H267.679V310.876H268.179V311.376ZM269.679 309.876H270.179V311.376H269.679V309.876ZM268.179 307.876H269.679V308.376H268.179V307.876ZM269.679 308.376H270.179V308.876H269.679V308.376ZM271.181 307.876H271.681V309.376H272.181V308.876H272.681V309.876H271.681V311.876H271.181V307.876ZM273.181 307.876H273.681V308.376H273.181V307.876ZM272.681 308.376H273.181V308.876H272.681V308.376ZM273.181 310.876H272.681V309.876H273.181V310.876ZM273.181 310.876H273.681V311.876H273.181V310.876ZM274.683 307.876H275.183V311.376H274.683V307.876ZM275.183 311.376H276.683V311.876H275.183V311.376ZM276.683 307.876H277.183V311.376H276.683V307.876ZM279.185 310.876H279.685V311.876H279.185V310.876ZM279.185 308.876H279.685V309.876H279.185V308.876ZM285.189 307.876H287.189V308.376H285.689V311.376H287.189V311.876H285.189V307.876ZM287.189 308.376H287.689V311.376H287.189V308.376ZM290.691 309.876V310.376H289.191V309.876H290.691ZM293.193 308.876H292.193V308.376H293.193V307.876H293.693V311.376H294.693V311.876H292.193V311.376H293.193V308.876ZM295.695 310.876H296.195V311.376H298.195V311.876H295.695V310.876ZM297.695 308.376H296.195V307.876H297.695V308.376ZM297.695 308.376H298.195V309.376H297.695V308.376ZM296.195 310.376H296.695V310.876H296.195V310.376ZM295.695 308.376H296.195V308.876H295.695V308.376ZM297.195 309.376H297.695V309.876H297.195V309.376ZM296.695 309.876H297.195V310.376H296.695V309.876ZM299.197 308.376H299.697V309.876H300.197V310.376H299.697V311.376H299.197V308.376ZM299.697 311.376H301.197V311.876H299.697V311.376ZM299.697 307.876H301.197V308.376H299.697V307.876ZM301.197 308.376H301.697V311.376H301.197V309.376H300.697V308.876H301.197V308.376ZM300.197 309.376H300.697V309.876H300.197V309.376ZM304.199 308.376H304.699V309.376H304.199V308.376ZM302.699 311.376H303.199V312.376H302.699V311.376ZM303.199 310.376H303.699V311.376H303.199V310.376ZM303.699 309.376H304.199V310.376H303.699V309.376ZM304.699 307.376H305.199V308.376H304.699V307.376ZM306.201 308.376H306.701V309.876H307.201V310.376H306.701V311.376H306.201V308.376ZM306.701 311.376H308.201V311.876H306.701V311.376ZM306.701 307.876H308.201V308.376H306.701V307.876ZM308.201 308.376H308.701V311.376H308.201V309.376H307.701V308.876H308.201V308.376ZM307.201 309.376H307.701V309.876H307.201V309.376ZM310.703 308.876H309.703V308.376H310.703V307.876H311.203V311.376H312.203V311.876H309.703V311.376H310.703V308.876ZM267.679 316.376H268.179V319.376H267.679V316.376ZM268.179 319.376H269.679V319.876H268.179V319.376ZM269.679 318.876H270.179V319.376H269.679V318.876ZM268.179 315.876H269.679V316.376H268.179V315.876ZM269.679 316.376H270.179V316.876H269.679V316.376ZM271.181 316.376H271.681V319.376H271.181V316.376ZM271.681 319.376H273.181V319.876H271.681V319.376ZM273.181 316.376H273.681V319.376H273.181V316.376ZM271.681 315.876H273.181V316.376H271.681V315.876ZM274.683 315.876H275.183V319.376H277.183V319.876H274.683V315.876ZM278.185 316.376H278.685V319.376H278.185V316.376ZM278.685 319.376H280.185V319.876H278.685V319.376ZM280.185 316.376H280.685V319.376H280.185V316.376ZM278.685 315.876H280.185V316.376H278.685V315.876ZM281.687 315.876H282.187V319.376H281.687V315.876ZM282.187 319.376H283.687V319.876H282.187V319.376ZM283.687 315.876H284.187V319.376H283.687V315.876ZM285.189 315.876H287.189V316.376H285.689V317.876H287.189V318.876H286.689V318.376H285.689V319.876H285.189V315.876ZM287.189 316.376H287.689V317.876H287.189V316.376ZM287.189 318.876H287.689V319.876H287.189V318.876ZM289.691 318.876H290.191V319.876H289.691V318.876ZM289.691 316.876H290.191V317.876H289.691V316.876ZM295.695 315.876H297.695V316.376H296.195V317.376H297.695V317.876H296.195V319.376H297.695V319.876H295.695V315.876ZM297.695 317.876H298.195V319.376H297.695V317.876ZM297.695 316.376H298.195V317.376H297.695V316.376ZM299.197 315.876H299.697V319.376H301.697V319.876H299.197V315.876ZM302.699 316.876H303.199V317.876H304.699V316.876H305.199V319.876H304.699V318.376H303.199V319.876H302.699V316.876ZM303.699 315.876H304.199V316.376H303.699V315.876ZM303.199 316.376H303.699V316.876H303.199V316.376ZM304.199 316.376H304.699V316.876H304.199V316.376ZM306.201 316.376H306.701V319.376H306.201V316.376ZM306.701 319.376H308.201V319.876H306.701V319.376ZM308.201 318.876H308.701V319.376H308.201V318.876ZM306.701 315.876H308.201V316.376H306.701V315.876ZM308.201 316.376H308.701V316.876H308.201V316.376ZM309.703 315.876H310.203V317.376H310.703V316.876H311.203V317.876H310.203V319.876H309.703V315.876ZM311.703 315.876H312.203V316.376H311.703V315.876ZM311.203 316.376H311.703V316.876H311.203V316.376ZM311.703 318.876H311.203V317.876H311.703V318.876ZM311.703 318.876H312.203V319.876H311.703V318.876Z" fill="white" fill-opacity="0.5"/>
<path d="M832.501 134.061V441.561C832.501 451.916 824.107 460.311 813.751 460.311H28.1265C17.7711 460.311 9.37646 451.916 9.37646 441.561L9.37646 134.061H18.7515V46.8732L823.126 46.8732V134.061H832.501Z" stroke="white" stroke-opacity="0.5" stroke-width="0.9375"/>
<path d="M137.813 180.898L704.063 180.898C726.892 180.898 743.978 180.898 757.414 182.252C770.843 183.606 780.574 186.307 788.708 191.676C796.054 196.525 802.342 202.813 807.191 210.16C812.56 218.293 815.262 228.025 816.615 241.453C817.969 254.89 817.97 271.976 817.97 294.804C817.97 317.632 817.969 334.719 816.615 348.155C815.262 361.583 812.56 371.315 807.191 379.449C802.342 386.795 796.054 393.083 788.708 397.932C780.574 403.301 770.843 406.003 757.414 407.356C743.978 408.71 726.892 408.71 704.063 408.71H137.813C114.985 408.71 97.899 408.71 84.4629 407.356C71.0344 406.003 61.3028 403.301 53.1689 397.932C45.8226 393.083 39.5349 386.795 34.6855 379.449C29.3165 371.315 26.615 361.583 25.2617 348.155C23.9077 334.719 23.9072 317.632 23.9072 294.804C23.9072 271.976 23.9077 254.89 25.2617 241.453C26.615 228.025 29.3165 218.293 34.6855 210.16C39.5349 202.813 45.8226 196.525 53.1689 191.676C61.3028 186.307 71.0344 183.606 84.4629 182.252C97.899 180.898 114.985 180.898 137.813 180.898Z" stroke="white" stroke-opacity="0.5" stroke-width="0.9375"/>
<path d="M643.129 190.272H702.66C723.062 190.272 738.33 190.273 750.358 191.441C762.38 192.608 771.116 194.939 778.47 199.568C786.127 204.389 792.606 210.867 797.427 218.525C802.056 225.878 804.386 234.615 805.554 246.636C806.722 258.665 806.723 273.932 806.723 294.334C806.723 314.736 806.722 330.004 805.554 342.033C804.386 354.054 802.056 362.791 797.427 370.144C792.606 377.802 786.127 384.28 778.47 389.101C771.116 393.73 762.38 396.06 750.358 397.228C738.33 398.396 723.062 398.397 702.66 398.397H643.129C634.068 398.397 626.723 391.052 626.723 381.991V206.678C626.723 197.617 634.068 190.272 643.129 190.272Z" stroke="white" stroke-opacity="0.5" stroke-width="0.9375"/>
<path d="M197.812 190.273H138.28C117.878 190.273 102.611 190.274 90.582 191.442C78.5607 192.61 69.8239 194.94 62.4707 199.569C54.8129 204.39 48.3346 210.868 43.5137 218.526C38.8845 225.879 36.5543 234.616 35.3867 246.637C34.2184 258.666 34.2178 273.934 34.2178 294.336C34.2178 314.737 34.2184 330.005 35.3867 342.034C36.5543 354.055 38.8845 362.792 43.5137 370.145C48.3346 377.803 54.8129 384.281 62.4707 389.102C69.8239 393.731 78.5607 396.061 90.582 397.229C102.611 398.397 117.878 398.398 138.28 398.398H197.812C206.872 398.398 214.218 391.053 214.218 381.992V206.679C214.218 197.618 206.872 190.273 197.812 190.273Z" stroke="white" stroke-opacity="0.5" stroke-width="0.9375"/>
<path d="M255.001 190.272H586.876C595.419 190.272 602.345 197.197 602.345 205.74V382.928C602.345 391.471 595.419 398.397 586.876 398.397H255.001C246.458 398.397 239.532 391.471 239.532 382.928V205.74L239.537 205.341C239.746 197.115 246.376 190.485 254.602 190.276L255.001 190.272Z" stroke="white" stroke-opacity="0.5" stroke-width="0.9375"/>
<path d="M626.718 343.554C653.901 343.554 675.937 321.518 675.937 294.335C675.937 267.152 653.901 245.117 626.718 245.117" stroke="white" stroke-opacity="0.5" stroke-width="0.9375"/>
<path d="M626.251 314.061C637.124 314.061 645.938 305.247 645.938 294.374C645.938 283.501 637.124 274.686 626.251 274.686" stroke="white" stroke-opacity="0.5" stroke-width="0.9375"/>
<path d="M213.751 274.685C202.878 274.685 194.063 283.5 194.063 294.373C194.063 305.246 202.878 314.06 213.751 314.06" stroke="white" stroke-opacity="0.5" stroke-width="0.9375"/>
<path d="M626.719 353.865C659.597 353.865 686.25 327.212 686.25 294.333C686.25 261.455 659.597 234.802 626.719 234.802" stroke="white" stroke-opacity="0.5" stroke-width="0.9375"/>
<line x1="675.938" y1="294.335" x2="686.251" y2="294.335" stroke="white" stroke-opacity="0.5" stroke-width="0.9375"/>
<line x1="677.136" y1="325.679" x2="668.205" y2="320.523" stroke="white" stroke-opacity="0.5" stroke-width="0.9375"/>
<line x1="654.283" y1="347.583" x2="648.367" y2="339.136" stroke="white" stroke-opacity="0.5" stroke-width="0.9375"/>
<line x1="654.314" y1="241.599" x2="649.157" y2="250.53" stroke="white" stroke-opacity="0.5" stroke-width="0.9375"/>
<line x1="677.602" y1="262.397" x2="668.671" y2="267.553" stroke="white" stroke-opacity="0.5" stroke-width="0.9375"/>
<path d="M214.22 245.116C187.037 245.116 165.001 267.152 165.001 294.335C165.001 321.518 187.037 343.554 214.22 343.554" stroke="white" stroke-opacity="0.5" stroke-width="0.9375"/>
<path d="M96.5632 190.838C71.382 215.252 55.3132 252.338 55.3132 293.866C55.3132 335.394 71.382 372.48 96.5632 396.894" stroke="white" stroke-opacity="0.5" stroke-width="0.9375"/>
<path d="M214.219 234.803C181.341 234.803 154.688 261.457 154.688 294.335C154.688 327.213 181.341 353.866 214.219 353.866" stroke="white" stroke-opacity="0.5" stroke-width="0.9375"/>
<line x1="165" y1="294.333" x2="154.687" y2="294.333" stroke="white" stroke-opacity="0.5" stroke-width="0.9375"/>
<line x1="163.805" y1="262.993" x2="172.736" y2="268.15" stroke="white" stroke-opacity="0.5" stroke-width="0.9375"/>
<line x1="186.657" y1="241.087" x2="192.572" y2="249.535" stroke="white" stroke-opacity="0.5" stroke-width="0.9375"/>
<line x1="186.626" y1="347.069" x2="191.783" y2="338.138" stroke="white" stroke-opacity="0.5" stroke-width="0.9375"/>
<line x1="163.334" y1="326.271" x2="172.265" y2="321.115" stroke="white" stroke-opacity="0.5" stroke-width="0.9375"/>
<path d="M673.125 322.459C672.866 322.459 672.656 322.669 672.656 322.928C672.656 323.187 672.866 323.397 673.125 323.397V322.928V322.459ZM717.817 271.693L717.356 271.781L717.817 271.693ZM717.817 316.039L718.277 316.127V316.127L717.817 316.039ZM673.125 264.803V265.272H709.178V264.803V264.334H673.125V264.803ZM709.178 322.928V322.459H673.125V322.928V323.397H709.178V322.928ZM717.817 271.693L717.356 271.781C718.381 277.112 719.531 285.059 719.531 293.866H720H720.468C720.468 284.982 719.309 276.973 718.277 271.604L717.817 271.693ZM720 293.866H719.531C719.531 302.672 718.381 310.62 717.356 315.95L717.817 316.039L718.277 316.127C719.309 310.759 720.468 302.749 720.468 293.866H720ZM709.178 322.928V323.397C713.568 323.397 717.441 320.478 718.277 316.127L717.817 316.039L717.356 315.95C716.612 319.821 713.159 322.459 709.178 322.459V322.928ZM709.178 264.803V265.272C713.159 265.272 716.612 267.91 717.356 271.781L717.817 271.693L718.277 271.604C717.441 267.254 713.568 264.334 709.178 264.334V264.803Z" fill="white" fill-opacity="0.5"/>
<path d="M726.562 264.804H762.615C766.801 264.804 770.464 267.583 771.254 271.693C772.282 277.043 773.437 285.022 773.437 293.866C773.437 302.711 772.282 310.69 771.254 316.039C770.464 320.15 766.801 322.929 762.615 322.929H726.562" stroke="white" stroke-opacity="0.5" stroke-width="0.9375" stroke-linecap="round"/>
<path d="M676.876 261.99H765.632C769.667 261.99 773.236 264.577 774.156 268.506C775.524 274.35 777.188 283.573 777.188 293.865C777.188 304.158 775.524 313.38 774.156 319.225C773.236 323.153 769.667 325.74 765.632 325.74H676.876" stroke="white" stroke-opacity="0.5" stroke-width="0.9375" stroke-linecap="round"/>
<path d="M204.24 236.033C204.4 236.236 204.695 236.271 204.898 236.11C205.101 235.949 205.136 235.655 204.975 235.452L204.608 235.742L204.24 236.033ZM140.32 236.587L140.667 236.902V236.902L140.32 236.587ZM174.667 209.433L174.893 209.843V209.843L174.667 209.433ZM159.011 271.79L159.379 271.5L140.482 247.597L140.114 247.888L139.746 248.179L158.643 272.081L159.011 271.79ZM185.71 211.84L185.343 212.131L204.24 236.033L204.608 235.742L204.975 235.452L186.078 211.549L185.71 211.84ZM140.32 236.587L140.667 236.902C144.298 232.902 149.835 227.283 156.627 221.914L156.336 221.546L156.046 221.179C149.202 226.589 143.627 232.247 139.973 236.272L140.32 236.587ZM156.336 221.546L156.627 221.914C163.419 216.544 170.163 212.453 174.893 209.843L174.667 209.433L174.44 209.022C169.681 211.649 162.89 215.768 156.046 221.179L156.336 221.546ZM185.71 211.84L186.078 211.549C183.28 208.01 178.422 206.825 174.44 209.022L174.667 209.433L174.893 209.843C178.442 207.885 182.806 208.922 185.343 212.131L185.71 211.84ZM140.114 247.888L140.482 247.597C137.945 244.389 137.943 239.903 140.667 236.902L140.32 236.587L139.973 236.272C136.916 239.639 136.948 244.64 139.746 248.179L140.114 247.888Z" fill="white" fill-opacity="0.5"/>
<path d="M129.465 234.424L107.106 206.142C104.51 202.858 104.419 198.26 107.154 195.091C108.358 193.696 109.789 192.103 111.424 190.393M175.062 198.376L168.751 190.393" stroke="white" stroke-opacity="0.5" stroke-width="0.9375" stroke-linecap="round"/>
<path d="M157.719 274.693L103.019 205.504C100.512 202.334 100.333 197.921 102.852 194.762C103.813 193.557 104.936 192.2 106.212 190.739M207.728 235.156L172.241 190.27" stroke="white" stroke-opacity="0.5" stroke-width="0.9375" stroke-linecap="round"/>
<path d="M204.148 353.23C204.31 353.029 204.606 352.997 204.807 353.16C205.008 353.323 205.039 353.618 204.877 353.819L204.512 353.525L204.148 353.23ZM140.238 351.976L139.887 352.288L139.887 352.288L140.238 351.976ZM174.285 379.505L174.054 379.913V379.913L174.285 379.505ZM159.313 316.979L159.677 317.274L140.52 340.968L140.155 340.674L139.791 340.379L158.948 316.685L159.313 316.979ZM185.355 377.219L184.99 376.924L204.148 353.23L204.512 353.525L204.877 353.819L185.719 377.514L185.355 377.219ZM140.238 351.976L140.588 351.665C144.175 355.705 149.65 361.383 156.383 366.827L156.088 367.191L155.794 367.556C149.009 362.071 143.497 356.352 139.887 352.288L140.238 351.976ZM156.088 367.191L156.383 366.827C163.116 372.27 169.815 376.435 174.516 379.097L174.285 379.505L174.054 379.913C169.323 377.234 162.578 373.041 155.794 367.556L156.088 367.191ZM185.355 377.219L185.719 377.514C182.883 381.022 178.012 382.154 174.054 379.913L174.285 379.505L174.516 379.097C178.043 381.094 182.418 380.105 184.99 376.924L185.355 377.219ZM140.155 340.674L140.52 340.968C137.948 344.149 137.897 348.634 140.588 351.665L140.238 351.976L139.887 352.288C136.867 348.887 136.954 343.887 139.791 340.379L140.155 340.674Z" fill="white" fill-opacity="0.5"/>
<path d="M129.362 354.024L106.694 382.06C104.063 385.315 103.922 389.912 106.621 393.111C107.81 394.519 109.224 396.128 110.84 397.855M174.561 390.57L168.163 398.483" stroke="white" stroke-opacity="0.5" stroke-width="0.9375" stroke-linecap="round"/>
<path d="M158.053 314.061L102.599 382.647C100.058 385.789 99.8305 390.2 102.315 393.386C103.263 394.602 104.371 395.972 105.631 397.446M207.626 354.143L171.651 398.638" stroke="white" stroke-opacity="0.5" stroke-width="0.9375" stroke-linecap="round"/>
<line x1="823.126" y1="56.7192" x2="19.689" y2="56.7192" stroke="white" stroke-opacity="0.5" stroke-width="0.9375"/>
<line x1="823.123" y1="134.061" x2="19.6856" y2="134.061" stroke="white" stroke-opacity="0.5" stroke-width="0.9375"/>
<path d="M210.353 28.7509V23.1259H208.478V22.1884H213.165V23.1259H211.29V28.7509H213.165V29.6884H208.478V28.7509H210.353ZM215.044 22.1884H215.981V24.0634H216.919V25.0009H215.981V29.6884H215.044V22.1884ZM218.794 26.8759H217.856V25.9384H218.794V22.1884H219.731V29.6884H218.794V26.8759ZM217.856 25.9384H216.919V25.0009H217.856V25.9384ZM221.61 23.1259H222.547V25.0009H221.61V23.1259ZM222.547 25.0009L225.36 25.0009V25.9384H222.547V25.0009ZM225.36 28.7509V29.6884H222.547V28.7509H225.36ZM222.547 28.7509H221.61V27.8134H222.547V28.7509ZM225.36 25.9384H226.297V28.7509H225.36V25.9384ZM222.547 22.1884H225.36V23.1259H222.547V22.1884ZM225.36 23.1259H226.297V24.0634H225.36V23.1259ZM228.176 22.1884H232.864V23.1259L229.114 23.1259V25.0009H231.926V25.9384H229.114V28.7509H232.864V29.6884H228.176V22.1884ZM234.742 22.1884H238.492V23.1259H235.68V25.9384H238.492V27.8134H237.555V26.8759H235.68V29.6884H234.742V22.1884ZM238.492 23.1259H239.43V25.9384H238.492V23.1259ZM238.492 27.8134H239.43V29.6884H238.492V27.8134ZM241.308 22.1884H245.996V23.1259H244.121V29.6884H243.183V23.1259H241.308V22.1884ZM254.441 22.1884H259.128V23.1259H257.253V29.6884H256.316V23.1259H254.441V22.1884ZM261.007 22.1884H261.944V25.0009H264.757V22.1884H265.694V29.6884H264.757V25.9384H261.944V29.6884H261.007V22.1884ZM269.448 28.7509V23.1259H267.573V22.1884H272.261V23.1259H270.386V28.7509L272.261 28.7509V29.6884L267.573 29.6884V28.7509H269.448ZM274.139 23.1259H275.077V25.0009H274.139V23.1259ZM275.077 25.0009H277.889V25.9384H275.077V25.0009ZM277.889 28.7509V29.6884H275.077V28.7509H277.889ZM275.077 28.7509H274.139V27.8134H275.077V28.7509ZM277.889 25.9384H278.827V28.7509H277.889V25.9384ZM275.077 22.1884H277.889V23.1259H275.077V22.1884ZM277.889 23.1259H278.827V24.0634H277.889V23.1259ZM287.272 23.1259H288.209V25.0009H287.272V23.1259ZM288.209 25.0009H291.022V25.9384H288.209V25.0009ZM291.022 28.7509V29.6884H288.209V28.7509H291.022ZM288.209 28.7509H287.272V27.8134H288.209V28.7509ZM291.022 25.9384H291.959V28.7509H291.022V25.9384ZM288.209 22.1884H291.022V23.1259H288.209V22.1884ZM291.022 23.1259H291.959V24.0634H291.022V23.1259ZM295.713 28.7509V23.1259H293.838V22.1884H298.525V23.1259H296.65V28.7509H298.525V29.6884H293.838V28.7509H295.713ZM300.404 22.1884H304.154V23.1259H301.341V28.7509H304.154V29.6884H300.404V22.1884ZM304.154 23.1259H305.091V28.7509H304.154V23.1259ZM306.97 22.1884H311.658V23.1259H307.908V25.0009H310.72V25.9384H307.908V28.7509H311.658V29.6884H306.97V22.1884ZM321.977 28.7509V23.1259H320.102V22.1884H324.79V23.1259H322.915V28.7509H324.79V29.6884H320.102V28.7509H321.977ZM326.669 22.1884H327.606V24.0634H328.544V25.0009H327.606V29.6884H326.669V22.1884ZM330.419 26.8759H329.481V25.9384H330.419V22.1884H331.356V29.6884H330.419V26.8759ZM329.481 25.9384H328.544V25.0009H329.481V25.9384ZM333.235 22.1884H337.922V23.1259H336.047V29.6884H335.11V23.1259H333.235V22.1884ZM339.801 23.1259H340.738V28.7509H339.801V23.1259ZM340.738 28.7509H343.551V29.6884H340.738V28.7509ZM343.551 23.1259L344.488 23.1259V28.7509H343.551V23.1259ZM340.738 22.1884H343.551V23.1259H340.738V22.1884ZM352.933 22.1884H356.683V23.1259H353.871V25.9384H356.683V27.8134H355.746V26.8759H353.871V29.6884H352.933V22.1884ZM356.683 23.1259H357.621V25.9384H356.683V23.1259ZM356.683 27.8134H357.621V29.6884H356.683V27.8134ZM359.499 22.1884H364.187V23.1259H360.437V25.0009H363.249V25.9384H360.437V28.7509H364.187V29.6884H359.499V22.1884ZM366.066 23.1259H367.003V28.7509H366.066V23.1259ZM367.003 28.7509H369.816V29.6884H367.003V28.7509ZM369.816 27.8134H370.753V28.7509H369.816V27.8134ZM367.003 22.1884H369.816V23.1259H367.003V22.1884ZM369.816 23.1259H370.753V24.0634H369.816V23.1259ZM372.632 23.1259H373.569V28.7509H372.632V23.1259ZM373.569 28.7509H376.382V29.6884H373.569V28.7509ZM376.382 23.1259H377.319V28.7509H376.382V23.1259ZM373.569 22.1884H376.382V23.1259H373.569V22.1884ZM379.198 22.1884H382.948V23.1259H380.135V25.9384H382.948V27.8134H382.01V26.8759H380.135V29.6884H379.198V22.1884ZM382.948 23.1259H383.885V25.9384H382.948V23.1259ZM382.948 27.8134H383.885V29.6884H382.948V27.8134ZM385.764 22.1884H389.514V23.1259H386.702V28.7509H389.514V29.6884H385.764V22.1884ZM389.514 23.1259H390.452V28.7509H389.514V23.1259ZM392.33 22.1884H397.018V23.1259H393.268V25.0009H396.08V25.9384H393.268V28.7509H397.018V29.6884H392.33V22.1884ZM398.896 22.1884H402.646V23.1259H399.834V25.9384H402.646V27.8134H401.709V26.8759H399.834V29.6884H398.896V22.1884ZM402.646 23.1259H403.584V25.9384H402.646V23.1259ZM402.646 27.8134H403.584V29.6884H402.646V27.8134ZM419.532 24.0634H420.47V23.1259H421.407V24.0634H422.345V25.9384H423.282V27.8134H424.22V28.7509H417.657V27.8134H418.595V25.9384H419.532V24.0634ZM438.293 22.1884H442.043V23.1259H439.231V28.7509H442.043V29.6884H438.293V22.1884ZM442.043 23.1259H442.981V28.7509H442.043V23.1259ZM444.859 23.1259H445.797V28.7509H444.859V23.1259ZM445.797 28.7509H448.609V29.6884H445.797V28.7509ZM448.609 23.1259H449.547V28.7509H448.609V23.1259ZM445.797 22.1884H448.609V23.1259H445.797V22.1884ZM457.992 22.1884H458.929V24.0634H459.867V25.0009H458.929V29.6884H457.992V22.1884ZM461.742 26.8759H460.804V25.9384H461.742V22.1884H462.679V29.6884H461.742V26.8759ZM460.804 25.9384H459.867V25.0009H460.804V25.9384ZM464.558 23.1259H465.495V28.7509H464.558V23.1259ZM465.495 28.7509H468.308V29.6884H465.495V28.7509ZM468.308 23.1259H469.245V28.7509H468.308V23.1259ZM465.495 22.1884H468.308V23.1259H465.495V22.1884ZM471.124 22.1884H475.812V23.1259H473.937V29.6884H472.999V23.1259H471.124V22.1884ZM484.256 22.1884H488.944V23.1259L487.069 23.1259V29.6884H486.131V23.1259H484.256V22.1884ZM490.823 23.1259H491.76V28.7509H490.823V23.1259ZM491.76 28.7509H494.573V29.6884H491.76V28.7509ZM494.573 23.1259H495.51V28.7509H494.573V23.1259ZM491.76 22.1884H494.573V23.1259H491.76V22.1884ZM497.389 22.1884H498.326V28.7509H497.389V22.1884ZM498.326 28.7509H501.139V29.6884H498.326V28.7509ZM501.139 22.1884H502.076V28.7509H501.139V22.1884ZM503.955 23.1259H504.892V28.7509H503.955V23.1259ZM504.892 28.7509H507.705V29.6884H504.892V28.7509ZM507.705 27.8134H508.642V28.7509H507.705V27.8134ZM504.892 22.1884H507.705V23.1259H504.892V22.1884ZM507.705 23.1259H508.642V24.0634H507.705V23.1259ZM510.521 22.1884H511.459V25.0009H514.271V22.1884H515.209V29.6884H514.271V25.9384L511.459 25.9384V29.6884H510.521V22.1884ZM523.653 22.1884H528.341V23.1259H526.466V29.6884H525.528V23.1259H523.653V22.1884ZM530.22 22.1884H531.157V25.0009H533.97V22.1884H534.907V29.6884H533.97V25.9384H531.157V29.6884H530.22V22.1884ZM536.786 22.1884H541.473V23.1259H537.723V25.0009H540.536V25.9384H537.723V28.7509H541.473V29.6884H536.786V22.1884ZM549.918 22.1884H554.606V23.1259H552.731V29.6884H551.793V23.1259H549.918V22.1884ZM556.484 24.0634H557.422V25.9384H560.234V24.0634H561.172V29.6884H560.234V26.8759H557.422V29.6884H556.484V24.0634ZM558.359 22.1884H559.297V23.1259H558.359V22.1884ZM557.422 23.1259H558.359V24.0634H557.422V23.1259ZM559.297 23.1259H560.234V24.0634H559.297V23.1259ZM563.05 22.1884H566.8V23.1259H563.988V25.9384H566.8V26.8759H563.988V29.6884H563.05V22.1884ZM566.8 23.1259H567.738V25.9384H566.8V23.1259ZM569.617 22.1884H574.304V23.1259H570.554V25.0009H573.367V25.9384H570.554V28.7509H574.304V29.6884H569.617V22.1884ZM584.624 28.7509V23.1259H582.749V22.1884H587.436V23.1259H585.561V28.7509H587.436V29.6884H582.749V28.7509H584.624ZM589.315 22.1884H590.253V24.0634H591.19V25.0009H590.253V29.6884H589.315V22.1884ZM593.065 26.8759H592.128V25.9384H593.065V22.1884H594.003V29.6884H593.065V26.8759ZM592.128 25.9384H591.19V25.0009H592.128V25.9384ZM595.881 23.1259H596.819V25.0009H595.881V23.1259ZM596.819 25.0009H599.631V25.9384H596.819V25.0009ZM599.631 28.7509V29.6884H596.819V28.7509H599.631ZM596.819 28.7509H595.881V27.8134H596.819V28.7509ZM599.631 25.9384H600.569V28.7509H599.631V25.9384ZM596.819 22.1884H599.631V23.1259H596.819V22.1884ZM599.631 23.1259L600.569 23.1259V24.0634H599.631V23.1259ZM604.322 28.7509V23.1259H602.447V22.1884H607.135V23.1259H605.26V28.7509H607.135V29.6884H602.447V28.7509H604.322ZM609.014 22.1884H612.764V23.1259H609.951V28.7509H612.764V29.6884H609.014V22.1884ZM612.764 23.1259H613.701V28.7509H612.764V23.1259ZM615.58 22.1884H620.267V23.1259H616.517V25.0009H619.33V25.9384H616.517V28.7509H620.267V29.6884H615.58V22.1884Z" fill="white" fill-opacity="0.5"/>
<path d="M405.305 100.685H403.43V96.9355H405.305V100.685ZM405.305 100.685H407.18V102.56H405.305V100.685ZM401.555 87.5605H403.43V96.9355H401.555V87.5605ZM409.055 87.5605H410.93V96.9355H409.055V87.5605ZM407.18 96.9355H409.055V100.685H407.18V96.9355ZM414.687 87.5605H416.562V93.1855H422.187V87.5605H424.062V102.56H422.187V95.0605H416.562V102.56H414.687V87.5605ZM427.819 89.4355H429.694V93.1855H427.819V89.4355ZM429.694 93.1855H435.319V95.0605H429.694V93.1855ZM435.319 100.685V102.56H429.694V100.685H435.319ZM429.694 100.685H427.819V98.8105H429.694V100.685ZM435.319 95.0605H437.194V100.685H435.319V95.0605ZM429.694 87.5605H435.319V89.4355H429.694V87.5605ZM435.319 89.4355H437.194V91.3105H435.319V89.4355Z" fill="white" fill-opacity="0.5"/>
<rect x="395.158" y="82.0308" width="48.75" height="25.3125" stroke="white" stroke-opacity="0.5" stroke-width="0.9375"/>
</svg>
