<svg width="540" height="540" viewBox="0 0 540 540" fill="none" xmlns="http://www.w3.org/2000/svg">
<g clip-path="url(#clip0_664_552)">
<circle cx="270" cy="270.002" r="64.53" stroke="white" stroke-opacity="0.25" stroke-width="0.94"/>
<path d="M30.9995 54.0014H32.4995V57.0014H33.9995V58.5014H32.4995V66.0014H30.9995V54.0014ZM36.9995 58.5014H35.4995V57.0014H36.9995V54.0014H38.4995V66.0014H36.9995V58.5014ZM33.9995 58.5014H35.4995V61.5014H33.9995V58.5014ZM44.5054 64.5014V55.5014H41.5054V54.0014H49.0054V55.5014H46.0054V64.5014H49.0054V66.0014H41.5054V64.5014H44.5054ZM52.0112 54.0014H53.5112V57.0014H55.0112V58.5014H53.5112V66.0014H52.0112V54.0014ZM58.0112 61.5014H56.5112V60.0014H58.0112V54.0014H59.5112V66.0014H58.0112V61.5014ZM56.5112 60.0014H55.0112V58.5014H56.5112V60.0014ZM65.5171 64.5014V55.5014H62.5171V54.0014H70.0171V55.5014H67.0171V64.5014H70.0171V66.0014H62.5171V64.5014H65.5171ZM79.0229 60.0014V61.5014H74.5229V60.0014H79.0229ZM83.5288 54.0014H89.5288V55.5014H85.0288V64.5014H89.5288V66.0014H83.5288V54.0014ZM89.5288 55.5014H91.0288V64.5014H89.5288V55.5014ZM97.0347 64.5014V55.5014H94.0347V54.0014H101.535V55.5014H98.5347V64.5014H101.535V66.0014H94.0347V64.5014H97.0347ZM104.541 55.5014H106.041V58.5014H104.541V55.5014ZM106.041 58.5014H110.541V60.0014H106.041V58.5014ZM110.541 64.5014V66.0014H106.041V64.5014H110.541ZM106.041 64.5014H104.541V63.0014H106.041V64.5014ZM110.541 60.0014H112.041V64.5014H110.541V60.0014ZM106.041 54.0014H110.541V55.5014H106.041V54.0014ZM110.541 55.5014H112.041V57.0014H110.541V55.5014ZM115.046 54.0014H116.546V58.5014H118.046V57.0014H119.546V60.0014H116.546V66.0014H115.046V54.0014ZM121.046 54.0014H122.546V55.5014H121.046V54.0014ZM119.546 55.5014H121.046V57.0014H119.546V55.5014ZM121.046 63.0014H119.546V60.0014H121.046V63.0014ZM121.046 63.0014H122.546V66.0014H121.046V63.0014ZM146.564 54.0014H154.064V55.5014H148.064V58.5014H152.564V60.0014H146.564V54.0014ZM152.564 60.0014H154.064V64.5014H152.564V60.0014ZM152.564 64.5014V66.0014H148.064V64.5014H152.564ZM148.064 64.5014H146.564V63.0014H148.064V64.5014ZM160.07 63.0014H161.57V66.0014H160.07V63.0014ZM158.57 66.0014H160.07V67.5014H158.57V66.0014ZM167.576 63.0014H169.076V64.5014H175.076V66.0014H167.576V63.0014ZM173.576 55.5014L169.076 55.5014V54.0014L173.576 54.0014V55.5014ZM173.576 55.5014H175.076V58.5014H173.576V55.5014ZM169.076 61.5014H170.576V63.0014H169.076V61.5014ZM167.576 55.5014H169.076V57.0014H167.576V55.5014ZM172.076 58.5014H173.576V60.0014H172.076V58.5014ZM170.576 60.0014H172.076V61.5014H170.576V60.0014ZM178.082 54.0014H185.582V55.5014H179.582V58.5014H184.082V60.0014H178.082V54.0014ZM184.082 60.0014H185.582V64.5014H184.082V60.0014ZM184.082 64.5014V66.0014H179.582V64.5014H184.082ZM179.582 64.5014H178.082V63.0014H179.582V64.5014ZM190.087 54.0014H191.587V57.0014H190.087V54.0014ZM193.087 54.0014H194.587V57.0014H193.087V54.0014ZM188.587 57.0014H190.087V58.5014L188.587 58.5014V57.0014ZM191.587 57.0014H193.087V58.5014H191.587V57.0014ZM29.9995 87.0014H31.9995V87.5014H30.4995V90.5014H31.9995V91.0014H29.9995V87.0014ZM31.9995 87.5014H32.4995V90.5014H31.9995V87.5014ZM34.5015 90.5014V87.5014H33.5015V87.0014H36.0015V87.5014H35.0015V90.5014H36.0015V91.0014H33.5015V90.5014H34.5015ZM37.0034 87.5014H37.5034V88.5014H37.0034V87.5014ZM37.5034 88.5014H39.0034V89.0014H37.5034V88.5014ZM39.0034 90.5014V91.0014H37.5034V90.5014H39.0034ZM37.5034 90.5014H37.0034V90.0014H37.5034V90.5014ZM39.0034 89.0014H39.5034V90.5014H39.0034V89.0014ZM37.5034 87.0014H39.0034V87.5014H37.5034V87.0014ZM39.0034 87.5014H39.5034V88.0014H39.0034V87.5014ZM40.5054 87.0014H41.0054V88.5014H41.5054V88.0014H42.0054V89.0014H41.0054V91.0014H40.5054V87.0014ZM42.5054 87.0014H43.0054V87.5014H42.5054V87.0014ZM42.0054 87.5014H42.5054V88.0014H42.0054V87.5014ZM42.5054 90.0014H42.0054V89.0014H42.5054V90.0014ZM42.5054 90.0014H43.0054V91.0014H42.5054V90.0014ZM44.0073 87.0014H46.5073V87.5014H44.5073V88.5014H46.0073V89.0014H44.5073V90.5014H46.5073V91.0014H44.0073V87.0014ZM47.5093 87.0014H50.0093V87.5014H49.0093V91.0014H48.5093V87.5014H47.5093V87.0014ZM51.0112 87.0014H53.5112V87.5014H52.5112V91.0014H52.0112V87.5014H51.0112V87.0014ZM54.5132 87.0014H57.0132V87.5014H55.0132V88.5014H56.5132V89.0014H55.0132V90.5014H57.0132V91.0014H54.5132V87.0014ZM58.0151 87.0014H58.5151V88.0014H59.0151V88.5014H58.5151V91.0014H58.0151V87.0014ZM60.0151 89.5014H59.5151V89.0014H60.0151V87.0014H60.5151V91.0014H60.0151V89.5014ZM59.5151 89.0014H59.0151V88.5014H59.5151V89.0014ZM29.9995 95.0014H31.9995V95.5014H30.4995V98.5014H31.9995V99.0014H29.9995V95.0014ZM31.9995 95.5014H32.4995V98.5014H31.9995V95.5014ZM34.5015 98.5014V95.5014H33.5015V95.0014H36.0015V95.5014H35.0015V98.5014H36.0015V99.0014H33.5015V98.5014H34.5015ZM37.0034 95.5014H37.5034V96.5014H37.0034V95.5014ZM37.5034 96.5014H39.0034V97.0014H37.5034V96.5014ZM39.0034 98.5014V99.0014H37.5034V98.5014H39.0034ZM37.5034 98.5014H37.0034V98.0014H37.5034V98.5014ZM39.0034 97.0014H39.5034V98.5014H39.0034V97.0014ZM37.5034 95.0014H39.0034V95.5014H37.5034V95.0014ZM39.0034 95.5014H39.5034V96.0014H39.0034V95.5014ZM40.5054 95.5014H41.0054V98.5014H40.5054V95.5014ZM41.0054 98.5014H42.5054V99.0014H43.0054V99.5014H42.0054V99.0014H41.0054V98.5014ZM42.5054 95.5014H43.0054V98.5014H42.5054V95.5014ZM42.5054 95.5014H41.0054V95.0014H42.5054V95.5014ZM44.0073 95.0014H44.5073V98.5014H44.0073V95.0014ZM44.5073 98.5014H46.0073V99.0014H44.5073V98.5014ZM46.0073 95.0014H46.5073V98.5014H46.0073V95.0014ZM47.5093 95.0014H50.0093V95.5014H48.0093V96.5014H49.5093V97.0014H48.0093V98.5014H50.0093V99.0014H47.5093V95.0014ZM51.0112 95.0014H53.5112V95.5014H52.5112V99.0014H52.0112V95.5014H51.0112V95.0014ZM54.5132 95.0014H57.0132V95.5014H56.0132V99.0014H55.5132V95.5014H54.5132V95.0014ZM58.0151 95.0014H60.5151V95.5014H58.5151V96.5014H60.0151V97.0014H58.5151V98.5014H60.5151V99.0014H58.0151V95.0014ZM61.5171 95.5014H62.0171V96.5014H61.5171V95.5014ZM62.0171 96.5014H63.5171V97.0014H62.0171V96.5014ZM63.5171 98.5014V99.0014H62.0171V98.5014H63.5171ZM62.0171 98.5014H61.5171V98.0014H62.0171V98.5014ZM63.5171 97.0014H64.0171V98.5014H63.5171V97.0014ZM62.0171 95.0014H63.5171V95.5014H62.0171V95.0014ZM63.5171 95.5014H64.0171V96.0014H63.5171V95.5014ZM29.9995 103.001H32.4995V103.501H30.4995V104.501H31.9995V105.001H30.4995V107.001H29.9995V103.001ZM33.5015 103.001H34.0015V106.501H36.0015V107.001H33.5015V103.001ZM37.0034 103.501H37.5034V106.501H37.0034V103.501ZM37.5034 106.501H39.0034V107.001H37.5034V106.501ZM39.0034 103.501H39.5034V106.501H39.0034V103.501ZM37.5034 103.001H39.0034V103.501H37.5034V103.001ZM40.5054 103.001H42.5054V103.501H41.0054V105.001H42.5054V105.501H41.0054V107.001H40.5054V103.001ZM42.5054 103.501H43.0054V105.001H42.5054V103.501ZM44.0073 103.001H46.0073V103.501H44.5073V105.001H46.0073V105.501H44.5073V107.001H44.0073V103.001ZM46.0073 103.501H46.5073V105.001H46.0073V103.501ZM47.5093 103.001H48.0093V104.501H47.5093V103.001ZM49.5093 103.001H50.0093V104.501H49.5093V103.001ZM48.5093 105.001H49.0093V107.001H48.5093V105.001ZM48.0093 104.501H48.5093V105.001H48.0093V104.501ZM49.0093 104.501H49.5093V105.001H49.0093V104.501ZM54.5132 103.001H56.5132V103.501H55.0132V106.501H56.5132V107.001H54.5132V103.001ZM56.5132 103.501H57.0132V106.501H56.5132V103.501ZM59.0151 106.501V103.501H58.0151V103.001H60.5151V103.501H59.5151V106.501H60.5151V107.001H58.0151V106.501H59.0151ZM61.5171 103.501H62.0171V104.501H61.5171V103.501ZM62.0171 104.501H63.5171V105.001H62.0171V104.501ZM63.5171 106.501V107.001H62.0171V106.501H63.5171ZM62.0171 106.501H61.5171V106.001H62.0171V106.501ZM63.5171 105.001H64.0171V106.501H63.5171V105.001ZM62.0171 103.001H63.5171V103.501H62.0171V103.001ZM63.5171 103.501H64.0171V104.001H63.5171V103.501ZM65.019 103.001H65.519V104.501H66.019V104.001H66.519V105.001H65.519V107.001H65.019V103.001ZM67.019 103.001H67.519V103.501H67.019V103.001ZM66.519 103.501H67.019V104.001H66.519V103.501ZM67.019 106.001H66.519V105.001H67.019V106.001ZM67.019 106.001H67.519V107.001H67.019V106.001ZM68.521 103.501H69.021V104.501H68.521V103.501ZM69.021 104.501H70.521V105.001H69.021V104.501ZM70.521 106.501V107.001H69.021V106.501H70.521ZM69.021 106.501H68.521V106.001H69.021V106.501ZM70.521 105.001H71.021V106.501H70.521V105.001ZM69.021 103.001H70.521V103.501H69.021V103.001ZM70.521 103.501H71.021V104.001H70.521V103.501ZM29.9995 128.001H31.9995V128.501H30.4995V131.501H31.9995V132.001H29.9995V128.001ZM31.9995 128.501H32.4995V131.501H31.9995V128.501ZM33.5015 128.501H34.0015V129.501H33.5015V128.501ZM34.0015 129.501H35.5015V130.001H34.0015V129.501ZM35.5015 131.501V132.001H34.0015V131.501H35.5015ZM34.0015 131.501H33.5015V131.001H34.0015V131.501ZM35.5015 130.001H36.0015V131.501H35.5015V130.001ZM34.0015 128.001H35.5015V128.501H34.0015V128.001ZM35.5015 128.501H36.0015V129.001H35.5015V128.501ZM38.5034 128.501H39.0034V129.501H38.5034V128.501ZM37.0034 131.501H37.5034V132.501H37.0034V131.501ZM37.5034 130.501H38.0034V131.501H37.5034V130.501ZM38.0034 129.501H38.5034V130.501H38.0034V129.501ZM39.0034 127.501H39.5034V128.501H39.0034V127.501ZM40.5054 128.001H42.5054V128.501H41.0054V131.501H42.5054V132.001H40.5054V128.001ZM42.5054 128.501H43.0054V131.501H42.5054V128.501ZM44.0073 128.001H46.0073V128.501H44.5073V131.501H46.0073V132.001H44.0073V128.001ZM46.0073 128.501H46.5073V131.501H46.0073V128.501ZM29.9995 139.001H30.4995V139.501H32.4995V140.001H29.9995V139.001ZM31.9995 136.501H30.4995V136.001H31.9995V136.501ZM31.9995 136.501H32.4995V137.501H31.9995V136.501ZM30.4995 138.501H30.9995V139.001H30.4995V138.501ZM29.9995 136.501H30.4995V137.001H29.9995V136.501ZM31.4995 137.501H31.9995V138.001H31.4995V137.501ZM30.9995 138.001H31.4995V138.501H30.9995V138.001ZM33.5015 136.501H34.0015V137.501H33.5015V136.501ZM34.0015 137.501H35.5015V138.001H34.0015V137.501ZM35.5015 139.501V140.001H34.0015V139.501H35.5015ZM34.0015 139.501H33.5015V139.001H34.0015V139.501ZM35.5015 138.001H36.0015V139.501H35.5015V138.001ZM34.0015 136.001H35.5015V136.501H34.0015V136.001ZM35.5015 136.501H36.0015V137.001H35.5015V136.501ZM38.5034 136.501H39.0034V137.501H38.5034V136.501ZM37.0034 139.501H37.5034V140.501H37.0034V139.501ZM37.5034 138.501H38.0034V139.501H37.5034V138.501ZM38.0034 137.501H38.5034V138.501H38.0034V137.501ZM39.0034 135.501H39.5034V136.501H39.0034V135.501ZM40.5054 139.001H41.0054V139.501H43.0054V140.001H40.5054V139.001ZM42.5054 136.501H41.0054V136.001H42.5054V136.501ZM42.5054 136.501H43.0054V137.501H42.5054V136.501ZM41.0054 138.501H41.5054V139.001H41.0054V138.501ZM40.5054 136.501H41.0054V137.001H40.5054V136.501ZM42.0054 137.501H42.5054V138.001H42.0054V137.501ZM41.5054 138.001H42.0054V138.501H41.5054V138.001ZM44.0073 136.001H46.0073V136.501H44.5073V139.501H46.0073V140.001H44.0073V136.001ZM46.0073 136.501H46.5073V139.501H46.0073V136.501ZM29.9995 145.501H30.4995V146.501H29.9995V145.501ZM30.4995 146.501H31.9995V147.001H30.4995V146.501ZM31.9995 148.501V149.001H30.4995V148.501H31.9995ZM30.4995 148.501H29.9995V148.001H30.4995V148.501ZM31.9995 147.001H32.4995V148.501H31.9995V147.001ZM30.4995 145.001H31.9995V145.501H30.4995V145.001ZM31.9995 145.501H32.4995V146.001H31.9995V145.501ZM33.5015 145.501H34.0015V148.501H33.5015V145.501ZM34.0015 148.501H35.5015V149.001H34.0015V148.501ZM35.5015 145.501H36.0015V148.501H35.5015V145.501ZM34.0015 145.001H35.5015V145.501H34.0015V145.001ZM37.0034 145.001H39.5034V145.501H37.5034V146.501H39.0034V147.001H37.5034V149.001H37.0034V145.001ZM40.5054 145.001H43.0054V145.501H42.0054V149.001H41.5054V145.501H40.5054V145.001ZM31.4995 153.001H32.4995V157.001H31.9995V156.001H29.9995V154.501H30.4995V155.501H31.9995V153.501H31.4995V153.001ZM30.9995 153.501H31.4995V154.001H30.9995V153.501ZM30.4995 154.001H30.9995V154.501H30.4995V154.001ZM33.5015 153.501H34.0015V154.501H33.5015V153.501ZM35.5015 153.501H34.0015V153.001H35.5015V153.501ZM35.5015 153.501H36.0015V154.501H35.5015V153.501ZM34.0015 154.501H35.5015V155.001H34.0015V154.501ZM35.5015 155.001H36.0015V156.501H35.5015V155.001ZM33.5015 155.001H34.0015V156.501H33.5015V155.001ZM35.5015 156.501V157.001H34.0015V156.501H35.5015ZM40.5054 153.001H43.0054V153.501H42.0054V157.001H41.5054V153.501H40.5054V153.001ZM44.0073 153.001H46.0073V153.501H44.5073V155.001H46.0073V155.501H44.5073V157.001H44.0073V153.001ZM46.0073 153.501H46.5073V155.001H46.0073V153.501ZM48.5093 156.501V153.501H47.5093V153.001H50.0093V153.501H49.0093V156.501H50.0093V157.001H47.5093V156.501H48.5093ZM29.9995 178.501H30.4995V179.501H29.9995V178.501ZM30.4995 179.501H31.9995V180.001H30.4995V179.501ZM31.9995 181.501V182.001H30.4995V181.501H31.9995ZM30.4995 181.501H29.9995V181.001H30.4995V181.501ZM31.9995 180.001H32.4995V181.501H31.9995V180.001ZM30.4995 178.001H31.9995V178.501H30.4995V178.001ZM31.9995 178.501H32.4995V179.001H31.9995V178.501ZM33.5015 178.001H34.0015V179.501H34.5015V179.001H35.0015V180.001H34.0015V182.001H33.5015V178.001ZM35.5015 178.001H36.0015V178.501H35.5015V178.001ZM35.0015 178.501H35.5015V179.001H35.0015V178.501ZM35.5015 181.001H35.0015V180.001H35.5015V181.001ZM35.5015 181.001H36.0015V182.001H35.5015V181.001ZM37.0034 178.001H37.5034V181.501H37.0034V178.001ZM37.5034 181.501H39.0034V182.001H37.5034V181.501ZM39.0034 178.001H39.5034V181.501H39.0034V178.001ZM41.5054 181.001H42.0054V182.001H41.5054V181.001ZM41.5054 179.001H42.0054V180.001H41.5054V179.001ZM47.5093 178.001H49.5093V178.501H48.0093V181.501H49.5093V182.001H47.5093V178.001ZM49.5093 178.501H50.0093V181.501H49.5093V178.501ZM53.0112 180.001V180.501H51.5112V180.001H53.0112ZM54.5132 178.001H57.0132V178.501H55.0132V179.501H56.5132V180.001H54.5132V178.001ZM56.5132 180.001H57.0132V181.501H56.5132V180.001ZM56.5132 181.501V182.001H55.0132V181.501H56.5132ZM55.0132 181.501H54.5132V181.001H55.0132V181.501ZM58.0151 181.001H58.5151V181.501H60.5151V182.001H58.0151V181.001ZM60.0151 178.501H58.5151V178.001H60.0151V178.501ZM60.0151 178.501H60.5151V179.501H60.0151V178.501ZM58.5151 180.501H59.0151V181.001H58.5151V180.501ZM58.0151 178.501H58.5151V179.001H58.0151V178.501ZM59.5151 179.501H60.0151V180.001H59.5151V179.501ZM59.0151 180.001H59.5151V180.501H59.0151V180.001ZM61.5171 178.001H64.0171V178.501H62.0171V179.501H63.5171V180.001H61.5171V178.001ZM63.5171 180.001H64.0171V181.501H63.5171V180.001ZM63.5171 181.501V182.001H62.0171V181.501H63.5171ZM62.0171 181.501H61.5171V181.001H62.0171V181.501ZM66.519 178.501H67.019V179.501H66.519V178.501ZM65.019 181.501H65.519V182.501H65.019V181.501ZM65.519 180.501H66.019V181.501H65.519V180.501ZM66.019 179.501H66.519V180.501H66.019V179.501ZM67.019 177.501H67.519V178.501H67.019V177.501ZM68.521 178.501H69.021V180.001H69.521V180.501H69.021V181.501H68.521V178.501ZM69.021 181.501H70.521V182.001H69.021V181.501ZM69.021 178.001H70.521V178.501H69.021V178.001ZM70.521 178.501H71.021V181.501H70.521V179.501H70.021V179.001H70.521V178.501ZM69.521 179.501H70.021V180.001H69.521V179.501ZM73.0229 179.001H72.0229V178.501H73.0229V178.001H73.5229V181.501H74.5229V182.001H72.0229V181.501H73.0229V179.001ZM29.9995 186.501H30.4995V189.501H29.9995V186.501ZM30.4995 189.501H31.9995V190.001H30.4995V189.501ZM31.9995 189.001H32.4995V189.501H31.9995V189.001ZM30.4995 186.001H31.9995V186.501H30.4995V186.001ZM31.9995 186.501H32.4995V187.001H31.9995V186.501ZM33.5015 186.501H34.0015V189.501H33.5015V186.501ZM34.0015 189.501H35.5015V190.001H34.0015V189.501ZM35.5015 186.501H36.0015V189.501H35.5015V186.501ZM34.0015 186.001H35.5015V186.501H34.0015V186.001ZM37.0034 186.001H37.5034V189.501H39.5034V190.001H37.0034V186.001ZM40.5054 186.501H41.0054V189.501H40.5054V186.501ZM41.0054 189.501H42.5054V190.001H41.0054V189.501ZM42.5054 186.501H43.0054V189.501H42.5054V186.501ZM41.0054 186.001H42.5054V186.501H41.0054V186.001ZM44.0073 186.001H44.5073V189.501H44.0073V186.001ZM44.5073 189.501H46.0073V190.001H44.5073V189.501ZM46.0073 186.001H46.5073V189.501H46.0073V186.001ZM47.5093 186.001H49.5093V186.501H48.0093V188.001H49.5093V189.001H49.0093V188.501H48.0093V190.001H47.5093V186.001ZM49.5093 186.501H50.0093V188.001H49.5093V186.501ZM49.5093 189.001H50.0093V190.001H49.5093V189.001ZM52.0112 189.001H52.5112V190.001H52.0112V189.001ZM52.0112 187.001H52.5112V188.001H52.0112V187.001ZM58.0151 186.001H58.5151V188.501H58.0151V186.001ZM58.5151 188.501H59.0151V190.001H58.5151V188.501ZM60.0151 186.001H60.5151V188.501H60.0151V186.001ZM59.5151 188.501H60.0151V190.001H59.5151V188.501ZM59.0151 187.501H59.5151V188.501H59.0151V187.501ZM61.5171 186.001H62.0171V187.501H63.5171V186.001H64.0171V190.001H63.5171V188.001H62.0171V190.001H61.5171V186.001ZM66.019 189.501V186.501H65.019V186.001H67.519V186.501H66.519V189.501H67.519V190.001H65.019V189.501H66.019ZM68.521 186.001H71.021V186.501H70.021V190.001H69.521V186.501H68.521V186.001ZM72.0229 186.001H74.5229V186.501H72.5229V187.501H74.0229V188.001H72.5229V189.501H74.5229V190.001H72.0229V186.001Z" fill="white" fill-opacity="0.25"/>
<path d="M460.97 54.0006H462.47V58.5006H466.97V54.0006H468.47V66.0006H466.97V60.0006H462.47V66.0006H460.97V54.0006ZM471.476 54.0006H477.476V55.5006H472.976V64.5006H477.476V66.0006H471.476V54.0006ZM477.476 55.5006H478.976V64.5006H477.476V55.5006ZM486.482 55.5006H487.982V58.5006H486.482V55.5006ZM481.982 64.5006H483.482V67.5006H481.982V64.5006ZM483.482 61.5006H484.982V64.5006H483.482V61.5006ZM484.982 58.5006H486.482V61.5006H484.982V58.5006ZM487.982 52.5006H489.482V55.5006H487.982V52.5006ZM492.488 54.0006H493.988V57.0006H495.488V58.5006H493.988V66.0006H492.488V54.0006ZM498.488 58.5006H496.988V57.0006H498.488V54.0006H499.988V66.0006H498.488V58.5006ZM495.488 58.5006H496.988V61.5006H495.488V58.5006ZM502.994 54.0006H508.994V55.5006H504.494V64.5006H508.994V66.0006H502.994V54.0006ZM508.994 55.5006H510.494V64.5006H508.994V55.5006Z" fill="white" fill-opacity="0.25"/>
<path d="M30 29.9992H32V30.4992H30.5V33.4992H32V33.9992H30V29.9992ZM32 30.4992H32.5V33.4992H32V30.4992ZM33.502 30.9992H34.002V31.9992H35.502V30.9992H36.002V33.9992H35.502V32.4992H34.002V33.9992H33.502V30.9992ZM34.502 29.9992H35.002V30.4992H34.502V29.9992ZM34.002 30.4992H34.502V30.9992H34.002V30.4992ZM35.002 30.4992H35.502V30.9992H35.002V30.4992ZM37.0039 30.9992H37.5039V31.9992H39.0039V30.9992H39.5039V33.9992H39.0039V32.4992H37.5039V33.9992H37.0039V30.9992ZM38.0039 29.9992H38.5039V30.4992H38.0039V29.9992ZM37.5039 30.4992H38.0039V30.9992H37.5039V30.4992ZM38.5039 30.4992H39.0039V30.9992H38.5039V30.4992ZM40.5059 30.4992H41.0059V31.4992H40.5059V30.4992ZM41.0059 31.4992H42.5059V31.9992H41.0059V31.4992ZM42.5059 33.4992V33.9992H41.0059V33.4992H42.5059ZM41.0059 33.4992H40.5059V32.9992H41.0059V33.4992ZM42.5059 31.9992H43.0059V33.4992H42.5059V31.9992ZM41.0059 29.9992H42.5059V30.4992H41.0059V29.9992ZM42.5059 30.4992H43.0059V30.9992H42.5059V30.4992ZM48.0098 30.4992H48.5098V33.4992H48.0098V30.4992ZM49.0098 33.9992H48.5098V33.4992H49.0098V33.9992ZM49.0098 33.9992H49.5098V34.4992H49.0098V33.9992ZM49.0098 29.4992H49.5098V29.9992H49.0098V29.4992ZM48.5098 29.9992H49.0098V30.4992H48.5098V29.9992ZM51.0117 30.4992H51.5117V33.4992H51.0117V30.4992ZM51.5117 33.4992H53.0117V33.9992H51.5117V33.4992ZM53.0117 32.4992H52.5117V31.9992H53.5117V33.4992H53.0117V32.4992ZM51.5117 29.9992H53.0117V30.4992H51.5117V29.9992ZM53.0117 30.4992H53.5117V30.9992H53.0117V30.4992ZM54.5137 29.9992H56.5137V30.4992H55.0137V31.9992H56.5137V32.9992H56.0137V32.4992H55.0137V33.9992H54.5137V29.9992ZM56.5137 30.4992H57.0137V31.9992H56.5137V30.4992ZM56.5137 32.9992H57.0137V33.9992H56.5137V32.9992ZM58.0156 30.9992H58.5156V31.9992H60.0156V30.9992H60.5156V33.9992H60.0156V32.4992H58.5156V33.9992H58.0156V30.9992ZM59.0156 29.9992H59.5156V30.4992H59.0156V29.9992ZM58.5156 30.4992H59.0156V30.9992H58.5156V30.4992ZM59.5156 30.4992H60.0156V30.9992H59.5156V30.4992ZM61.5176 29.9992H63.5176V30.4992H62.0176V31.9992H63.5176V32.4992H62.0176V33.9992H61.5176V29.9992ZM63.5176 30.4992H64.0176V31.9992H63.5176V30.4992ZM65.0195 29.9992H65.5195V31.4992H67.0195V29.9992H67.5195V33.9992H67.0195V31.9992H65.5195V33.9992H65.0195V29.9992ZM69.5215 33.4992V30.4992H68.5215V29.9992H71.0215V30.4992H70.0215V33.4992H71.0215V33.9992H68.5215V33.4992H69.5215ZM72.0234 30.4992H72.5234V33.4992H72.0234V30.4992ZM72.5234 33.4992H74.0234V33.9992H72.5234V33.4992ZM74.0234 32.9992H74.5234V33.4992H74.0234V32.9992ZM72.5234 29.9992H74.0234V30.4992H72.5234V29.9992ZM74.0234 30.4992H74.5234V30.9992H74.0234V30.4992ZM75.5254 30.4992H76.0254V31.4992H75.5254V30.4992ZM76.0254 31.4992H77.5254V31.9992H76.0254V31.4992ZM77.5254 33.4992V33.9992H76.0254V33.4992H77.5254ZM76.0254 33.4992H75.5254V32.9992H76.0254V33.4992ZM77.5254 31.9992H78.0254V33.4992H77.5254V31.9992ZM76.0254 29.9992H77.5254V30.4992H76.0254V29.9992ZM77.5254 30.4992H78.0254V30.9992H77.5254V30.4992ZM80.5273 30.4992H81.0273V33.4992H80.5273V30.4992ZM80.0273 33.4992H80.5273V33.9992H80.0273V33.4992ZM79.5273 33.9992H80.0273V34.4992H79.5273V33.9992ZM79.5273 29.4992H80.0273V29.9992H79.5273V29.4992ZM80.5273 30.4992H80.0273V29.9992H80.5273V30.4992Z" fill="white" fill-opacity="0.25"/>
<path d="M435.457 509.999H435.957V511.499H437.457V509.999H437.957V513.999H437.457V511.999H435.957V513.999H435.457V509.999ZM439.958 513.499V510.499H438.958V509.999H441.458V510.499H440.458V513.499H441.458V513.999H438.958V513.499H439.958ZM442.46 510.499H442.96V513.499H442.46V510.499ZM442.96 513.499H444.46V513.999H442.96V513.499ZM444.46 512.499H443.96V511.999H444.96V513.499H444.46V512.499ZM442.96 509.999H444.46V510.499H442.96V509.999ZM444.46 510.499H444.96V510.999H444.46V510.499ZM445.962 509.999H446.462V511.499H447.962V509.999H448.462V513.999H447.962V511.999H446.462V513.999H445.962V509.999ZM452.966 509.999H454.966V510.499H453.466V513.499H454.966V513.999H452.966V509.999ZM454.966 510.499H455.466V513.499H454.966V510.499ZM456.468 509.999H458.968V510.499H456.968V511.499H458.468V511.999H456.968V513.499H458.968V513.999H456.468V509.999ZM459.97 509.999H460.47V510.999H460.97V511.499H460.47V513.999H459.97V509.999ZM461.97 512.499H461.47V511.999H461.97V509.999H462.47V513.999H461.97V512.499ZM461.47 511.999H460.97V511.499H461.47V511.999ZM463.472 510.499H463.972V511.499H463.472V510.499ZM463.972 511.499H465.472V511.999H463.972V511.499ZM465.472 513.499V513.999H463.972V513.499H465.472ZM463.972 513.499H463.472V512.999H463.972V513.499ZM465.472 511.999H465.972V513.499H465.472V511.999ZM463.972 509.999H465.472V510.499H463.972V509.999ZM465.472 510.499H465.972V510.999H465.472V510.499ZM467.974 513.499V510.499H466.974V509.999H469.474V510.499H468.474V513.499H469.474V513.999H466.974V513.499H467.974ZM470.476 509.999H472.976V510.499H471.976V513.999H471.476V510.499H470.476V509.999ZM473.978 509.999H474.478V511.499H473.978V509.999ZM475.978 509.999H476.478V511.499H475.978V509.999ZM474.978 511.999H475.478V513.999H474.978V511.999ZM474.478 511.499H474.978V511.999H474.478V511.499ZM475.478 511.499H475.978V511.999H475.478V511.499ZM480.982 509.999H481.482V510.999H481.982V511.499H481.482V513.999H480.982V509.999ZM482.982 511.499H482.482V510.999H482.982V509.999H483.482V513.999H482.982V511.499ZM481.982 511.499H482.482V512.499H481.982V511.499ZM485.484 513.499V510.499H484.484V509.999H486.984V510.499H485.984V513.499H486.984V513.999H484.484V513.499H485.484ZM487.986 509.999H488.486V510.999H488.986V511.499H488.486V513.999H487.986V509.999ZM489.986 512.499H489.486V511.999H489.986V509.999H490.486V513.999H489.986V512.499ZM489.486 511.999H488.986V511.499H489.486V511.999ZM492.488 513.499V510.499H491.488V509.999H493.988V510.499H492.988V513.499H493.988V513.999H491.488V513.499H492.488ZM496.99 511.999V512.499H495.49V511.999H496.99ZM498.492 509.999H500.492V510.499H498.992V513.499H500.492V513.999H498.492V509.999ZM500.492 510.499H500.992V513.499H500.492V510.499ZM502.994 513.499V510.499H501.994V509.999H504.494V510.499H503.494V513.499H504.494V513.999H501.994V513.499H502.994ZM505.496 510.499H505.996V511.499H505.496V510.499ZM505.996 511.499H507.496V511.999H505.996V511.499ZM507.496 513.499V513.999H505.996V513.499H507.496ZM505.996 513.499H505.496V512.999H505.996V513.499ZM507.496 511.999H507.996V513.499H507.496V511.999ZM505.996 509.999H507.496V510.499H505.996V509.999ZM507.496 510.499H507.996V510.999H507.496V510.499ZM508.998 509.999H509.498V511.499H509.998V510.999H510.498V511.999H509.498V513.999H508.998V509.999ZM510.998 509.999H511.498V510.499H510.998V509.999ZM510.498 510.499H510.998V510.999H510.498V510.499ZM510.998 512.999H510.498V511.999H510.998V512.999ZM510.998 512.999H511.498V513.999H510.998V512.999Z" fill="black"/>
<circle cx="269.998" cy="270" r="56.53" stroke="white" stroke-opacity="0.25" stroke-width="0.94"/>
<circle cx="348" cy="314.001" r="12.53" stroke="white" stroke-opacity="0.25" stroke-width="0.94"/>
<rect x="245.469" y="381.969" width="49.06" height="134.06" rx="24.53" stroke="white" stroke-opacity="0.25" stroke-width="0.94"/>
<rect x="526" y="125.499" width="14" height="25" fill="#D9D9D9"/>
<rect x="526" y="125.499" width="14" height="25" fill="black"/>
<rect x="525.53" y="125.029" width="14.94" height="25.94" stroke="white" stroke-opacity="0.25" stroke-width="0.94"/>
<rect x="526" y="125.499" width="5" height="25" fill="black"/>
</g>
<rect x="0.47" y="0.47" width="539.06" height="539.06" stroke="white" stroke-opacity="0.25" stroke-width="0.94"/>
<defs>
<clipPath id="clip0_664_552">
<rect width="540" height="540" fill="white"/>
</clipPath>
</defs>
</svg>
