<svg preserveAspectRatio="none" width="100%" height="100%" overflow="visible" style="display: block;" viewBox="0 0 96.0004 96" fill="none" xmlns="http://www.w3.org/2000/svg">
<g id="Group">
<path id="Vector" d="M96.0004 4.59002H91.4104V27.45H96.0004V4.59002Z" fill="var(--fill-0, #AAFF00)"/>
<path id="Vector_2" d="M32.01 27.45V4.59H36.57V9.15H41.13V4.59H50.28V13.74H54.84V4.59H63.99V9.15H68.58V4.59H77.7V13.74H82.29V4.59H91.41V0H18.27V4.59H27.42V27.45H4.56V18.3H0V91.44H4.56V82.29H13.71V77.73H4.56V68.58H9.15V64.02H4.56V54.87H13.71V50.31H4.56V41.16H9.15V36.6H4.56V32.01H27.42V91.44H32.01V32.01H91.41V27.45H32.01Z" fill="var(--fill-0, #AAFF00)"/>
<path id="Vector 4" d="M9.14308 18.2856H4.57165V27.4285H27.4288V4.57133H18.2859V9.14276H13.7145V13.7142H9.14308V18.2856Z" fill="var(--fill-0, #AAFF00)"/>
<path id="Vector_3" d="M27.42 91.44H4.56V96H27.42V91.44Z" fill="var(--fill-0, #AAFF00)"/>
<path id="Vector_4" d="M18.2704 4.58972H13.7104V9.14972H18.2704V4.58972Z" fill="var(--fill-0, #AAFF00)"/>
<path id="Vector_5" d="M13.7103 9.15019H9.15033V13.7402H13.7103V9.15019Z" fill="var(--fill-0, #AAFF00)"/>
<path id="Vector_6" d="M9.15046 13.7391H4.56046V18.2991H9.15046V13.7391Z" fill="var(--fill-0, #AAFF00)"/>
</g>
</svg>
