<svg preserveAspectRatio="none" width="100%" height="100%" overflow="visible" style="display: block;" viewBox="0 0 92.989 92.1479" fill="none" xmlns="http://www.w3.org/2000/svg">
<g id="icon-face-1">
<path id="Face" d="M36 92H56V88H64V84H72V80H76V76H80V72H84V64H88V52H92V40H88V28H84V20H80V16H76V12H72V8H64V4H56V0H36V4H28V8H20V12H16V16H12V20H8V28H4V40H0V52H4V64H8V72H12V76H16V80H20V84H28V88H36V92Z" fill="var(--fill-0, white)"/>
<rect id="Pixel" x="35.9987" y="71.9993" width="20" height="4" fill="var(--fill-0, black)"/>
<rect id="Pixel_2" x="28.0001" y="68.0003" width="8" height="4" fill="var(--fill-0, black)"/>
<rect id="Pixel_3" x="56.0012" y="68.0006" width="8" height="4" fill="var(--fill-0, black)"/>
<rect id="Pixel_4" x="24.0006" y="64.0008" width="4" height="4" fill="var(--fill-0, black)"/>
<rect id="Pixel_5" x="64.0009" y="63.9997" width="4" height="4" fill="var(--fill-0, black)"/>
<rect id="Pixel_6" x="20.0013" y="60.0003" width="4" height="4" fill="var(--fill-0, black)"/>
<rect id="Pixel_7" x="67.9995" y="60.0001" width="4" height="4" fill="var(--fill-0, black)"/>
<rect id="Pixel_8" x="68.001" y="36.0002" width="4" height="4" fill="var(--fill-0, black)"/>
<rect id="Pixel_9" x="24.0003" y="39.9997" width="4" height="4" transform="rotate(-180 24.0003 39.9997)" fill="var(--fill-0, black)"/>
<rect id="Pixel_10" x="64.0003" y="40.0005" width="4" height="4" fill="var(--fill-0, black)"/>
<rect id="Pixel_11" x="28.0008" y="36.0003" width="4" height="4" transform="rotate(-180 28.0008 36.0003)" fill="var(--fill-0, black)"/>
<rect id="Pixel_12" x="60" y="44" width="4" height="4" fill="var(--fill-0, black)"/>
<rect id="Pixel_13" x="32.0014" y="32" width="4" height="4" transform="rotate(-180 32.0014 32)" fill="var(--fill-0, black)"/>
<rect id="Pixel_14" x="53.999" y="32.0003" width="4" height="8" transform="rotate(-180 53.999 32.0003)" fill="var(--fill-0, black)"/>
<rect id="Pixel_15" x="50.0008" y="40.0001" width="4" height="8" transform="rotate(-180 50.0008 40.0001)" fill="var(--fill-0, black)"/>
<rect id="Pixel_16" x="45.9988" y="47.9992" width="4" height="8" transform="rotate(-180 45.9988 47.9992)" fill="var(--fill-0, black)"/>
<rect id="Pixel_17" x="42.0005" y="55.9999" width="4" height="8" transform="rotate(-180 42.0005 55.9999)" fill="var(--fill-0, black)"/>
<rect id="Pixel_18" x="63.9995" y="32.0004" width="4" height="4" fill="var(--fill-0, black)"/>
<rect id="Pixel_19" x="27.9997" y="44.0002" width="4" height="4" transform="rotate(-180 27.9997 44.0002)" fill="var(--fill-0, black)"/>
<rect id="Pixel_20" x="59.9999" y="28" width="4" height="4" fill="var(--fill-0, black)"/>
<rect id="Pixel_21" x="31.9992" y="47.9997" width="4" height="4" transform="rotate(-180 31.9992 47.9997)" fill="var(--fill-0, black)"/>
</g>
</svg>
