<svg preserveAspectRatio="none" width="100%" height="100%" overflow="visible" style="display: block;" viewBox="0 0 73.1407 95.9996" fill="none" xmlns="http://www.w3.org/2000/svg">
<g id="Group">
<path id="Vector" d="M73.1372 13.7106H68.5772V73.1406H73.1372V13.7106Z" fill="var(--fill-0, white)"/>
<path id="Vector_2" d="M63.9907 82.2896H18.3007V77.7296H13.7107V82.2896H9.15066V95.9996H73.1407V82.2896H68.5807V73.1396H63.9907V82.2896ZM63.9907 91.4396H54.8707V86.8496H63.9907V91.4396Z" fill="var(--fill-0, white)"/>
<path id="Vector_3" d="M68.5815 9.14873H59.4315V13.7087H68.5815V9.14873Z" fill="var(--fill-0, white)"/>
<path id="Vector_4" d="M54.8708 54.87H45.7208V59.43H54.8708V54.87Z" fill="var(--fill-0, white)"/>
<path id="Vector_5" d="M36.5664 59.4288H22.8564V63.9888H36.5664V59.4288Z" fill="var(--fill-0, white)"/>
<path id="Vector_6" d="M27.416 41.1285H22.8561V45.7185H32.006V32.0085H41.1561V45.7185H32.006V50.2785H36.566V59.4285H41.1561V54.8685H45.716V32.0085H54.866V54.8685H59.426V13.7085H54.866V27.4185H32.006V4.55853H27.416V41.1285Z" fill="var(--fill-0, white)"/>
<path id="Vector_7" d="M27.4173 0L18.2973 0V4.56H27.4173V0Z" fill="var(--fill-0, white)"/>
<path id="Vector_8" d="M22.8576 54.8702H18.2976V59.4302H22.8576V54.8702Z" fill="var(--fill-0, white)"/>
<path id="Vector_9" d="M22.8623 41.1284V36.5684H18.3023V4.55839H13.7123V36.5684H9.1523V41.1284H22.8623Z" fill="var(--fill-0, white)"/>
<path id="Vector_10" d="M13.7107 73.1396H9.15066V77.7296H13.7107V73.1396Z" fill="var(--fill-0, white)"/>
<path id="Vector_11" d="M9.14653 63.9896H4.58653V73.1396H9.14653V63.9896Z" fill="var(--fill-0, white)"/>
<path id="Vector_12" d="M9.14718 41.1299H4.58718V45.7199H9.14718V41.1299Z" fill="var(--fill-0, white)"/>
<path id="Vector_13" d="M4.59 45.7199H0L0 63.9899H4.59L4.59 45.7199Z" fill="var(--fill-0, white)"/>
</g>
</svg>
