<svg width="92" height="92" viewBox="0 0 92 92" fill="none" xmlns="http://www.w3.org/2000/svg">
<path d="M36 92H56V88H64V84H72V80H76V76H80V72H84V64H88V52H92V40H88V28H84V20H80V16H76V12H72V8H64V4H56V0L36 0V4H28V8H20V12H16V16H12V20H8V28H4L4 40H0L0 52H4V64H8L8 72H12V76H16V80H20V84H28V88H36V92Z" fill="var(--color-accent, #aaff00)"/>
<rect x="36.0004" y="72.0004" width="20" height="4" fill="var(--color-bg, black)"/>
<rect x="28.0004" y="67.9998" width="8" height="4" fill="var(--color-bg, black)"/>
<rect x="55.9993" y="68" width="8" height="4" fill="var(--color-bg, black)"/>
<rect x="23.9991" y="63.9998" width="4" height="4" fill="var(--color-bg, black)"/>
<rect x="64" y="64" width="4" height="4" fill="var(--color-bg, black)"/>
<rect x="19.9999" y="59.9996" width="4" height="4" fill="var(--color-bg, black)"/>
<rect x="68" y="60" width="4" height="4" fill="var(--color-bg, black)"/>
<rect x="63.9996" y="32.0005" width="4" height="4" fill="var(--color-bg, black)"/>
<rect x="27.9999" y="36.0003" width="4" height="4" transform="rotate(-180 27.9999 36.0003)" fill="var(--color-bg, black)"/>
<rect x="54.0009" y="31.9998" width="4" height="8" transform="rotate(-180 54.0009 31.9998)" fill="var(--color-bg, black)"/>
<rect x="50.0012" y="39.9998" width="4" height="8" transform="rotate(-180 50.0012 39.9998)" fill="var(--color-bg, black)"/>
<rect x="45.9997" y="47.9999" width="4" height="8" transform="rotate(-180 45.9997 47.9999)" fill="var(--color-bg, black)"/>
<rect x="42" y="56" width="4" height="8" transform="rotate(-180 42 56)" fill="var(--color-bg, black)"/>
<rect x="64.0007" y="39.9998" width="4" height="4" fill="var(--color-bg, black)"/>
<rect x="27.999" y="43.9998" width="4" height="4" transform="rotate(-180 27.999 43.9998)" fill="var(--color-bg, black)"/>
<rect x="64" y="36" width="4" height="4" fill="var(--color-bg, black)"/>
<rect x="28.0005" y="39.9999" width="4" height="4" transform="rotate(-180 28.0005 39.9999)" fill="var(--color-bg, black)"/>
</svg>
